<svg xmlns="http://www.w3.org/2000/svg" viewBox="0 0 187.54 295.48"><defs><style>.cls-1{fill:#fff;}</style></defs><g id="Capa_2" data-name="Capa 2"><g id="Blanco"><g id="Logo_curripa" data-name="Logo curripa"><path class="cls-1" d="M102,0c.74,4.21,1.61,8.4,2.2,12.62,1.35,9.7,2.57,19.41,3.84,29.12a3.23,3.23,0,0,1,.12,1.18c-4.06,14.3,3.49,28.06,2.09,42.39-.4,4.05,3.73,8.69,6.16,12.83,1.51,2.58,3.83,4.67,5.62,7.1Q132.6,119.59,143,134c.68.94,1.71,2.23,1.5,3.12-1.25,5.44,3.8,8.48,4.76,13,.14.68,1.21,1.17,2.07,2,.51-1.69.9-3,1.3-4.31l1.77-1.41a25.37,25.37,0,0,0,2.13,4.23c8.18,10.87,16,22.06,24.83,32.36,6,7,6.92,13.84,5.69,22.61-.65,4.63-3.4,9.94-.27,14.93a2,2,0,0,1-.14,1.89c-4.37,5.15-2.09,11.23-2.5,16.93-.11,1.53-.45,3-.68,4.57l-1.64.08-2.56-9.57-1.05-.26q-2.58,8.73-5.17,17.47l-1,.24c-.87-3.66-2.33-7.28-2.51-11-.56-11.46-.57-22.95-1-34.42a10.9,10.9,0,0,0-1.84-5.49c-5.75-8.37-11.52-16.74-17.64-24.83-3.87-5.12-8.33-9.75-6.24-17,.19-.65-.31-1.48-.93-2.23-.19,1.85-.38,3.69-.66,6.49-1.71-1.17-3.08-1.68-3.79-2.67-9.61-13.3-19-26.71-28.72-40-2.83-3.89-6.27-7.34-9.89-11.52-2,2.57-3.89,4.86-5.6,7.28-11,15.55-22.12,31.05-32.95,46.73-8.65,12.54-17,25.27-25.32,38a11.91,11.91,0,0,0-1.41,6c-.12,11.93,0,23.86-.08,35.79,0,1.51-.27,3-.54,5.81a36.39,36.39,0,0,1-3.47-3.88c-2.83-4.58-5.53-9.24-8.31-13.85a6.39,6.39,0,0,0-1.35-1.4c-2.82-2.4-3.91-5.41-4-9.12-.07-4.45-.65-8.89-1-13.69L0,211.88c.72-1.79,1-2.67,1.42-3.5.88-1.76,2.63-3.51,2.59-5.23-.13-6.88,6.28-9.21,8.89-14.81,1,1.48,1.51,2.3,2.11,3.23.3-.18.72-.29.91-.57,6.28-8.69,12.59-17.36,18.79-26.11Q47.91,146.26,61,127.55C70,114.74,79.27,102.1,87.77,89c2-3.1,2.08-7.9,1.92-11.88-.45-10.89,2.42-21.25,4.16-31.81,2.24-13.71,4-27.49,6.05-41.23.2-1.37.57-2.7.86-4Z"/><path class="cls-1" d="M100.43,267c7.18,2.25,7.89,3.31,4.44,9-2.39,3.93-.67,7.4-.13,11s.52,6.65-3.37,8.13a9.77,9.77,0,0,1-4,.33,29,29,0,0,1-3-.92c-5.41-1.06-6-1.71-6-7.39,0-7.68-.07-15.37,0-23.05,0-1.51.76-3,1-4.5a14.22,14.22,0,0,0,.39-4c-.36-3.1-1.39-6.17-1.41-9.26-.11-30.35.08-60.7-.17-91-.06-6.71,4.73-10,8.2-14.25.42-.51,3.25,0,4,.84,3.69,4.33,7.16,8.7,6.43,15.18-.58,5.1.24,10.35-.22,15.48-1.21,13.56.68,27,.76,40.53.1,17.08-.44,34.16-.68,51.23C106.63,268.78,103.28,266.53,100.43,267Z"/><path class="cls-1" d="M131.21,185.35a13.77,13.77,0,0,1,2.45,1.75c5.29,6.74,10.65,13.44,15.71,20.35,1,1.32,1,3.5,1,5.29.07,18,.21,36,0,54-.12,8.05-1.07,16.1-1.68,24.14,0,.45-.44.87-1.54,1.39-.54-2.7-1.07-5.4-1.61-8.1l-1.62-.31c-.75,2.15-1.59,4.27-2.21,6.46-.52,1.84-.54,4.09-3.38,2.17-.11-.07-.29-.2-.35-.16-6.06,3.32-8-2.54-11.14-5.22s-5.83-5.77-8.76-8.65c-1.79-1.76-2-2.95.46-4.57,12-7.84,11.85-7.91,12-22.16.08-8.6.71-17.18.69-25.77,0-11.9-.49-23.8-.69-35.71A35,35,0,0,1,131.21,185.35ZM149,271.16h.29V210.61H149Z"/><path class="cls-1" d="M68.28,294.43c-3.64-4.07-7.05-8.39-11-12.16-5.21-5-5.78-11-5.67-17.74.28-18.54,0-37.09.19-55.64A14.4,14.4,0,0,1,54,201.54c3.28-5.08,7.05-9.84,10.69-14.67,1.19-1.59,2.57-3,3.87-4.53l1.08.52v111ZM69,190.52h-.33v95H69Z"/><path class="cls-1" d="M47,127.28a13.38,13.38,0,0,1-.74-2.83c-.08-7.51-.09-15-.1-22.53,0-9.41.15-18.83-.08-28.24C46,70,47.3,68.37,50.93,68.12c5.37-.36,10.75-.88,16.1-1.5,2.39-.28,3.06.74,3,2.89,0,8.28.58,16.64-.31,24.83-.37,3.45-3.84,6.58-6,9.8-.91,1.37-2.08,2.57-3,3.94-4.07,6.15-8.08,12.34-12.15,18.49C48.48,126.83,48,126.88,47,127.28Z"/></g></g></g></svg>