<svg xmlns="http://www.w3.org/2000/svg" viewBox="0 0 380.9 149.98"><defs><style>.cls-1{fill:#fff;}</style></defs><g id="Capa_2" data-name="Capa 2"><g id="Blanco"><g id="Kimen"><g id="Capa_6" data-name="Capa 6"><path class="cls-1" d="M211.81,61.49c.3-2.4.73-3.59,1.31-3.59a23.77,23.77,0,0,0-.43-4,3.42,3.42,0,0,0,.43-1.32l-.43-.88c0-.52.29-.84.88-1,0-.29-.14-.43-.45-.43l.45-2.2V45.35l-.45-.88L214,44l-.43-.88.43-.87-.88-.52L214.44,40v-.87h-1v-.88h1v-4.9c0-.53-.32-.86-1-1l1-4.38a.46.46,0,0,1-.53-.38.33.33,0,0,1,0-.14c.36,0,.67-1.32,1-3.95l-.43-1,.88-8.43c-.29,0-.45-.18-.45-.53a3,3,0,0,0-1.39.53,3.44,3.44,0,0,1,1-2.71,3.59,3.59,0,0,1-3.16-1.77,3.51,3.51,0,0,1,1.32.45l.88-.45a5.48,5.48,0,0,0-.88-2.71c-.7,0-2.06.73-4,2.19l.44,2.29c-.47.86-.9,1.31-1.31,1.31h-.88c0-1.17-.29-1.76-.88-1.76h-1.85c-.69,0-1.13.88-1.31,2.63V15h-.87a3.21,3.21,0,0,0-.45-1.41c-.52,0-.81.33-.86,1V15c.46.88.9,1.31,1.31,1.31h1.75l.88-.43,1,1.31h-1l-.88-.44c-1.46.47-2.2.9-2.2,1.31-.93-.47-1.39-.91-1.39-1.31l-.88.44.88,1.85c-1.12,0-1.84.88-2.2,2.63l-.88-.44c-.87,0-1.31.91-1.31,2.71-.35,0-.53-.14-.53-.43-.46,0-.76.29-.87.88a5.36,5.36,0,0,0-2.63-.88v.88a.76.76,0,0,0,.64.87H193l.86-.44c0,.58.62.89,1.85.89V27a3.17,3.17,0,0,1-1.4-.45q-2.64,2.73-4.47,2.73l.43.88c-2,0-3.06.91-3.06,2.71A5.48,5.48,0,0,0,184.44,36v.43h.44c1.23-.76,1.84-1.49,1.84-2.2h.45v.45a3.1,3.1,0,0,0-.45,1.32q-3.33,1.05-4,3.15a.88.88,0,0,0,1,.77.87.87,0,0,0,.76-.77q2.28,0,2.28,1.32v.43h-.53V40h-.43l-.88.45c0,.58.62.87,1.84.87v.45c0,.46-.61.93-1.84,1.39a4.66,4.66,0,0,0,.88,2.2h-.88q0-1.32-.87-1.32h-1.32c0,1.46-.61,2.2-1.85,2.2v.52l.45.87-2.2.88a.38.38,0,0,0-.32-.43h-.11v.87h.86v.88c-.75,0-1.19.76-1.31,2.29a3.38,3.38,0,0,0,1.31.43v.88l-1.75-.88-.43.88a1.19,1.19,0,0,1,1.32,1,1.61,1.61,0,0,1,0,.31v.87h-.45V54.29h-.44c-1.22.77-1.84,1.32-1.84,1.84l.44.89h-1.32c-1.75,2-3,3.06-3.59,3.06,0,.65.62,1,1.84,1v.87h-1.84v.45c.24.87,1.14,1.32,2.72,1.32v.43h-2.72l-.88-.43v.43a.78.78,0,0,0,.68.88.67.67,0,0,0,.2,0c-1.17,1.22-1.75,2.13-1.75,2.71h-1.32V66.4l.44-3.16c-.58,0-1.05-1.05-1.41-3.16.65,0,1-.29,1-.87a15.91,15.91,0,0,1-2.29-4.92h.45c-1.46-6.58-2.63-10.61-3.6-12l.52-1c-.69-1.46-1.17-2.19-1.39-2.19q-2.21-8.07-5.79-17.45c0-.58.58-.88,1.75-.88v-.87h-.88l-.87.43c-1.67-5.67-3-8.51-4-8.51l-1.32.88c-.23-1.46-.67-2.2-1.31-2.2h-1c-.46,0-.75.29-.87.89l.44.86L146,13.59h-.43l-.89-.43c0,.28-.17.43-.52.43a3.1,3.1,0,0,0,.52,1.41v.43h-1v-.87h-.35l-.88.44v-.44l.43-1-1.75-2.18a4.41,4.41,0,0,1-2.72,1.31,20.6,20.6,0,0,1-2.19,4.47l-.88-.44h-.52v.88h1v.88c-.94,0-1.4.32-1.4,1a3.89,3.89,0,0,0,1.84-.43h.44v.43c-1.11,0-1.87,1.5-2.28,4.47l.44.88c-.29,0-.58.44-.88,1.32l.88,1.32c.64,0,1-.29,1-.89l.88.45-.44,1-.88-.52a7.26,7.26,0,0,0,.88,3.15c-.52,0-.82.29-.88.88v.44h.88L134,36l.88,1.39a3.56,3.56,0,0,0-1.75.45l1.31,2.63c-.3,0-.44.14-.44.43l.88,1.41c-1.17,0-1.75,1-1.75,3.07a3.46,3.46,0,0,0,.43,1.4.38.38,0,0,0-.43.32.24.24,0,0,0,0,.12l-.88-.44h-.44l.44,4.39h-2.35a.86.86,0,0,0,.72,1h.24v1.31l.44.87a.39.39,0,0,0-.44.45l.44.87-1.4,1c.18,1.46.65,2.18,1.4,2.18v.45c-.87,1.51-1.78,2.28-2.71,2.28v1.31h.87a10.86,10.86,0,0,1-.87,3.59h2.27V67.7c-.93,0-1.4.3-1.4.88v.88l.88,1.4c-.82,0-1.55.59-2.2,1.76v.87H129v.44h-.88l.45,1v.44h-.88v.88c.76,0,1.19.59,1.31,1.75-1.42,1.13-2.19,1.89-2.19,2.29l.44.87h-.44q-.8,0-.87-.87l-1,.43c0,.59.33.88,1,.88-.48.87-1,1.32-1.41,1.32,0,.41.82,1,2.28,1.84l.88-.43.43.87A4.49,4.49,0,0,0,126,86c0-.53-.33-.82-1-.88l-.86.44A10.92,10.92,0,0,1,126,88.23a.47.47,0,0,0-.53.39.33.33,0,0,0,0,.14v.43H126l.87-.43v1.75c-.7,0-1.46.58-2.28,1.75l-.89-.42a.38.38,0,0,1-.32.43.24.24,0,0,1-.12,0c0,.65.29,1,.88,1l2.28-.53v.53l-.44.86-1-.43-.87.43.87,1.77h-1.31v.43a2.61,2.61,0,0,0,2.72,1.84c-1.53.88-2.28,1.61-2.28,2.2h-.44q0-1.32-.87-1.32a3.57,3.57,0,0,1-.45,1.32l1.76.87c.46-.87.9-1.32,1.32-1.32h1c0,.88-.62,1.32-1.84,1.32v.88h.88v.51c-.71,1.17-1.32,1.75-1.76,1.75h-.44c-.52,0-.81-.29-.88-.87h2.2v-.88l-.44-1-2.63,1a26.7,26.7,0,0,0,1.75,3.51c-.88.7-1.31,1.18-1.31,1.4a.77.77,0,0,0,.65.88h.23v.88h-.45v-.88h-.43l-1,.43c0,.48,1.05,1.06,3.15,1.77l-2.19,2.27v.44l.88-.44h.87v.44c0,.83-1.2,1.41-3.6,1.76v.43h1.41l.87-.43c.47.93.91,1.4,1.32,1.4l-.44.88-1.31-.88h-.44v.88a5,5,0,0,1,2.19.88,9.34,9.34,0,0,0-1.75,3.16l.43,1c-.53,0-.82.29-.87.86v.45a3.08,3.08,0,0,1,1.75.87l-.43.88c-.53,0-.83-.29-.88-.88a11.88,11.88,0,0,1-1.85.45v1h1v.88l.53,3.06h-1.47l1.4,2.28V133h-1v.88l.45.87c-.3,0-.45.18-.45.53v1.31l1,1.32v.45h-1.4a3.7,3.7,0,0,0,.43,1.84v.43l-.87-.43-.88.43c0,.58.44.88,1.32.88V142h-.88v.88l3.15-.45a3.24,3.24,0,0,1,1.32.45l-.87,1.31h-1.32v-.44h1.32c0-.46-.3-.75-.88-.87a9.75,9.75,0,0,1-3.16,1.84l.88,1.32a3,3,0,0,0,1.32-.45h.52l-1,2.2a.39.39,0,0,1,.45.33v.1q1.22-1.23,5.87-1.75a3.75,3.75,0,0,1-2.28-3.16l2.72-.43v-3.16c.87,0,1.32-.3,1.32-.88-1.76,0-2.63-.29-2.63-.88a1.56,1.56,0,0,0,1.75-1.33,1.48,1.48,0,0,0,0-.42,3.57,3.57,0,0,1,1.75.43l.88-.43v.88c-.41.87-.84,1.32-1.32,1.32a.79.79,0,0,0,.67.87h1.61a3.39,3.39,0,0,0-.44-1.31,35.79,35.79,0,0,1,1.32-4,3.23,3.23,0,0,0-1.32-.44V133a3.37,3.37,0,0,0,1.32-.43l-.88-3.16v-.88a3.23,3.23,0,0,0,1.31-.44.83.83,0,0,0-.77-.88h-.09a9.25,9.25,0,0,0,1.75-3.59l-.44-.88c0-.53.29-.82.87-.88l-.43-2.71a12.29,12.29,0,0,0,.88-5.36l1,.44h.43a.39.39,0,0,0-.32-.44h-.11a3.38,3.38,0,0,1,.43-1.31l-1-2.29c.36,0,.53-.72.53-2.18h.88c0,.86.29,1.31.87,1.31l.88-.45c0-.57-.44-.86-1.32-.86v-1l.88.53.87-.53c0-.58-.58-.87-1.75-.87l.88-1.76a1.16,1.16,0,0,0-1-1.31.81.81,0,0,0-.31,0v-1.85l2.63-1.75v-.88H138l-.88.45-.87-1.41h.87c.3-2.34,1.19-3.51,2.72-3.51v.45c.58,0,.88-.45.88-1.32l.87.44h.51q0-1.41.87-1.41l-.43-.87V91a3.38,3.38,0,0,0,1.31-.43c-.47-.88-.9-1.32-1.31-1.32a.91.91,0,0,1,.88-1h0l1.84,1.4h1.32v-.87c-.53,0-1.58-.76-3.16-2.29l.43-.87-.43-.88h.43l1.84-3.16a6.26,6.26,0,0,0-1.4-3.15h1.4l-.43-.89v-.43H146V78h2.2c0-.58.33-.87,1-.87v-.88l-1.85-.5v-.45a3.48,3.48,0,0,0,2.28-1h.44a8.44,8.44,0,0,1,3.09,5.87l-2.2.43v.44l.44.88a3.51,3.51,0,0,0,1.76-.44h.43a3.42,3.42,0,0,1-.43,1.32,3.26,3.26,0,0,0,1,1.84.38.38,0,0,0,.43-.32.2.2,0,0,0,0-.11l.89.43h.88l.87-.43c-.53-3.63-1.32-5.45-2.19-5.45a.38.38,0,0,1,.32-.43h.12c0-3-.44-4.48-1.32-4.48a3.61,3.61,0,0,1,.43-1.76c-.69-2.1-1.31-3.16-1.84-3.16,0-.46.29-.75.88-.86,1.06,1.8,2.25,2.71,3.6,2.71v.44c-.87,0-1.32.29-1.32.87l.45.88h-.45l1.32,1.84a.78.78,0,0,1-.66.88h-.21a.75.75,0,0,0,.64.86.88.88,0,0,0,.23,0h.44v-.86h.44c0,1.17.31,1.75,1,1.75l-1,1.31c.76,1.22,1.31,1.84,1.84,1.84a.39.39,0,0,1-.32.44h-.12c0,1.17.87,2.63,2.64,4.48a3.52,3.52,0,0,0-1.77.44,3.41,3.41,0,0,1,.45,1.31h.87l.88-.43a3.67,3.67,0,0,1,.43,1.84h1v-.53l-.45-.88c.29,0,.45-.29.45-.88h.5a4.7,4.7,0,0,1,2.19,2.72.39.39,0,0,0-.44.44l-.87-.44h-.45a3.39,3.39,0,0,1-1.84.89v.43l.53.88c.88-.47,1.31-.91,1.31-1.31a.76.76,0,0,1,.88.65.74.74,0,0,1,0,.21v1.32h-1.31c-.53,2.1-1.15,3.16-1.84,3.16a7.82,7.82,0,0,0,3.15,3.6.78.78,0,0,0,.88-.68.67.67,0,0,0,0-.2l.87.43a.85.85,0,0,0,1-.72.65.65,0,0,0,0-.24,3,3,0,0,1,1.31.53q.34,0,1.32-2.28h1.39l.88-.44c0-.53-.29-.82-.88-.87a.4.4,0,0,1,.34-.45H173a3.26,3.26,0,0,0-.45-1.39l.45-.89-.45-.88c1.88-2.68,3.19-4,4-4A3.28,3.28,0,0,0,176,85.6c1-.52,1.9-2,2.73-4.48l-.45-.87.88-.45c1-3,1.79-4.47,2.2-4.47V74l1-1.32-.44-.88c2-1.7,3-2.89,3.07-3.59s-.43-.88-1.32-.88v-.44c.7,0,1.58-.62,2.64-1.84a.39.39,0,0,0-.44-.45q2.53-3.94,3.59-3.94l-.93-1.41v-.88l.87.43h.88L188.94,57c1.46,0,2.66-1.19,3.59-3.59,2.11-1.29,3.16-2.2,3.16-2.72v-.44h-1v.87h-.88c1.12-3.85,2.75-5.79,4.92-5.79h.44l-1.32,1.85c.88,0,1.32.28,1.32.88h-1.32v-.88h-.43c-.53,0-.83.28-.88.88l1.75,2.19h-.44l-.88-.44a.78.78,0,0,1-.66.88.74.74,0,0,1-.21,0,3.42,3.42,0,0,0,.44,1.41l-.44.86c0,.6.73.89,2.19.89v1.74a7.43,7.43,0,0,1-.87,3.61q-.72,0-3.16,4.47v.87h.43l1.41-.87h1.32l1.31.87A3.33,3.33,0,0,0,198.3,66c-1.17-.17-1.75-.65-1.75-1.41h-.88c0,1.53-.47,2.29-1.4,2.29v1.75a6.51,6.51,0,0,0,3.59-1.32h.44a.39.39,0,0,1-.32.44h-.12c0,.59.74.88,2.2.88l-.45.88L197.43,69h-.88c0,1.24-.91,1.85-2.73,1.85v.88c.88,0,1.32.29,1.32.88a5.28,5.28,0,0,0-1.32,3.16l.88,1.31a4.27,4.27,0,0,0-2.19.44.39.39,0,0,0-.32-.44h-1V78h.45l1.75,2.74.88-.44c0,.58.46.87,1.4.87v.43h-1.85v1.32a2.81,2.81,0,0,0,1.32-.45h1.41v.45c-.77,0-2.4,1.05-4.91,3.16v.88h1.75v.87h-2.2v1h2.63a4.75,4.75,0,0,1,.45-2.29l2.28.45v.87L193,89.63v2.19c1.46,0,2.36.48,2.71,1.41h-1.4v.87l.43.88a.38.38,0,0,0-.43.32v.12a2.25,2.25,0,0,1-1.76-2.19h-.44a5,5,0,0,1-2.72,1.32V95c0,.58.91,1.17,2.72,1.75a8.48,8.48,0,0,1,2.63-.87h1v.44c-.94,0-1.4.29-1.4.88a5,5,0,0,0,1.4,3.16h-1v-.88a.37.37,0,0,0-.43.32v.11c-1.17,0-1.91-.75-2.2-2.28a3.26,3.26,0,0,0-1.84.53l-1.31-1h-.44v1c.87,0,1.32,1,1.32,3.06a.79.79,0,0,1-.66.89h-.22l.88,3.15v.88c-.48,0-.77-.28-.88-.88a3.49,3.49,0,0,1-1.32.44v.44c1.17.18,1.75.65,1.75,1.4.29,0,.45-.17.45-.53.58,0,.87.48.87,1.41h1.4a3.6,3.6,0,0,1,1.32.43c0,.31-.15.45-.43.45l1.31,1.75c-.47.94-.91,1.41-1.31,1.41l.86,1.32v.43a3,3,0,0,0-1.75.88q0,.87,1.32.87c0,.64-.29,1-.88,1l-.87-.44a.39.39,0,0,1-.33.44.24.24,0,0,1-.12,0c0,.58.59.88,1.77.88v.87a3.1,3.1,0,0,0-1.32.45l.43.87.89-.44v1.32a3.39,3.39,0,0,0-.89,1.84l-.88-.43h-.43v.86h1v2.2h-1.41v1.84a3.46,3.46,0,0,0,1.41-.43,5.06,5.06,0,0,0,2.63.87,20.18,20.18,0,0,1,.87-4.48l-.53-.78h.44a3.33,3.33,0,0,0-.44-1.41l.44-.88-.87-1.32h.87v.88h.53l.88-.43c0-.53-.29-.83-.88-.88.28-1.82.73-2.73,1.31-2.73a3.38,3.38,0,0,0-.43-1.31c.88-.65,1.31-1.08,1.31-1.32v-1.84l-.43-.88a.38.38,0,0,0,.43-.32.2.2,0,0,0,0-.11v-.44l-.88-1.31c.88,0,1.46-.62,1.76-1.85a3.23,3.23,0,0,0-.44-1.31h.44l-.88-1.32V102.1h1.75v7.2l-.43,3.15a.38.38,0,0,1,.43.32.24.24,0,0,1,0,.12l-.43.88.43,1.75-.43,1,.43.88q-.44,0-1.31,9.39l.88.44-.88,1.31v.42c.47.88.9,1.32,1.31,1.32a3.78,3.78,0,0,1,2.29-.87v-.88l-.45-.88h.45a2.85,2.85,0,0,0-.45-1.32c.6-1.8,1.17-2.71,1.77-2.71a3.25,3.25,0,0,0-.45-1.31c.3-1,.59-1.41.88-1.41v-1.32l.88-1.31h-1.31v-.44l.86-1.31-.43-1a.78.78,0,0,0,.88-.66.81.81,0,0,0,0-.22v-.87L203.22,112a2.52,2.52,0,0,0,1.31-.53l-.45-.87v-.45a3.59,3.59,0,0,1,.45-1.75,3.69,3.69,0,0,1-.45-1.84v-.43a3.21,3.21,0,0,0,1.41-.45,3.57,3.57,0,0,0-.43-1.75c0-.53.29-.81.87-.88,0-.75-.61-1.22-1.85-1.39,0-.48.33-.77,1-.89V99.47c0-.29.43-.58,1.31-.88l-.88-1.4c.65,0,1.32-1,2.2-3.08a3.26,3.26,0,0,0-.45-1.39l.45-.88a3.24,3.24,0,0,0-.45-1.32l.45-.88-.45-.87v-.52l.88.52h.44l-.44-2.29v-.43l.44-.88-.87-.44C209.2,83.42,210,82.48,210,82l-1-1.31v-.45l.44-.88c-.29,0-.44-.17-.44-.53.47-.88.94-1.31,1.4-1.31a.39.39,0,0,0-.32-.44H210l.88-4a3.56,3.56,0,0,0-1.41-.43c.47-.88.93-1.32,1.41-1.32L210,70c.47-.94.9-1.41,1.31-1.41a24.83,24.83,0,0,0-.43-4,2.83,2.83,0,0,0,.43-1.31,3.31,3.31,0,0,1-.43-1.32Q210.87,61.49,211.81,61.49ZM125,108.41,122.8,108v-1h1.31c.58,0,.87.33.87,1Zm1.41-11.66h-1l.52-2.19.87.44Zm2.2-17.37h.86v.43a.76.76,0,0,1-.65.88h-.21Zm-1.32,4h-.88v-.88a3.1,3.1,0,0,0,1.76-.89h.45c-.88.78-1.32,1.32-1.32,1.77Zm2.63,51c0,.65-.3,1-.88,1h-.88v-1a3.38,3.38,0,0,0,1.31-.43h.45Zm0-1.75h-.45c-.86-.47-1.31-.91-1.31-1.31.88,0,1.31-.33,1.31-1h.45Zm13.85-64.83a3.73,3.73,0,0,0,1.85-.43l.43.88v.43h-2.28Zm-3.51,18.77h.53V87.8h-.88a3.38,3.38,0,0,0,.36-1.32Zm-1.84-67H138V18.08h1.31v.43q0,1-.87,1Zm3.16,70.62a2.94,2.94,0,0,0-1.32.43l-1-1.31h2.28Zm0-4h-.79V84.3a.92.92,0,0,1,.87-1l-.44-.88V82q1.32.7,1.32,1.32a4.14,4.14,0,0,0-1,2.72Zm1.84-7.2h-1.32v-.43A3.24,3.24,0,0,0,143.4,78Zm.87-2.19H143a3.1,3.1,0,0,0,.45-1.32h.87Zm-.44-4.91V70.43q0-.78,1-1h.45c0,.35-.14.53-.45.53,0,.58.6.87,1.77.87a3.41,3.41,0,0,0-.45,1.31Zm3.59,3.16h-1.75V74h1.68Zm16.15,0c-.35,0-.53.14-.53.43l-2.63-3.59v-.43h.45c1.09.34,2,1.55,2.64,3.59ZM163,70.43l-.43.89a2.85,2.85,0,0,0-1.32-.45V70a3.56,3.56,0,0,0,1.68.43ZM161.72,69,160,68.59V66h.89a5.36,5.36,0,0,0,.8,3.07ZM151,13.59h.43c.59,0,.88.33.88,1V15H151Zm0,3.6c0-.47.29-.76.88-.88h.43a3.77,3.77,0,0,0,.44,1.77L151,17.63Zm1.31,6.32H151l.43-1c.53,0,.82.31.82,1Zm-2.63-4h.88a.76.76,0,0,1,.87.67.74.74,0,0,1,0,.21h-.87a.83.83,0,0,1-.94-.88Zm1.75,42.45c.88,1.17,1.61,1.77,2.2,1.77a.78.78,0,0,1-.67.87h-.21L151,62.8Zm2.73,5.36h-.53a3,3,0,0,0-1.75-.88V66l.43-1a3.29,3.29,0,0,0,1.85,1Zm-1-19.66h1l1.31.88a.79.79,0,0,1-.65.89h-.66a3,3,0,0,0-1-1.77Zm1.39,3.52v-.87h1.32v.87Zm3.08,9.91h-.45a3.46,3.46,0,0,0-.43-1.4V59.2l.88.43Zm-.88-4.47c-.7,0-1.15-.91-1.32-2.72v-.44c2.11,1.18,3.16,1.9,3.16,2.19v.52a3.66,3.66,0,0,0-1.91.44Zm2.72,16h-.45c-.52,0-.84-.29-1-.88h1.41Zm-.45-8.08.45-.86a.75.75,0,0,1,.87.64.81.81,0,0,1,0,.22V65H160Zm4.48,14.83H163c0-1.22-1-1.84-3.07-1.84V77.1a3.23,3.23,0,0,0,1.32-.44l.88.44.87-.44c.47,0,.93.59,1.41,1.76a.86.86,0,0,1-.95,1Zm2.63,18.25h-.87c-.53,0-.83-.29-.88-.88h1.75ZM171.55,78h-.88V77.1c0-.52.3-.81.88-.88H172a3.51,3.51,0,0,0-.5,1.75Zm1-2.63h-2.27v-.43l.43-1a3.8,3.8,0,0,0,1.84.43Zm2.13,6.22h-.43a3.25,3.25,0,0,0-.45-1.31V79.8h1.32A3.51,3.51,0,0,0,174.64,81.56Zm2.2,2.73H176V82.88h.88Zm1-3.17H176l.43-.87a3.51,3.51,0,0,0,1.41.43Zm4.47-30.43c-1.22,0-1.84.46-1.84,1.41l-.88-.45a3.74,3.74,0,0,0,.88-2.28,3.81,3.81,0,0,0,1.84.44Zm.45-1.76v-.44c0-.53.29-.81.87-.88H184c-.48.89-.91,1.33-1.32,1.33Zm2.18-2.19a3.39,3.39,0,0,0-1.31.44V44.91c.88.46,1.31.91,1.31,1.32Zm3.61-9.9a.84.84,0,0,1-.88-.78V36h.5a.78.78,0,0,1,.88.65.81.81,0,0,1,0,.22Zm7.18,1.4c0,.59-.31.88-1,.88h-.43l.4-1.76h1Zm1.76-3.59-2.28.44V34.2h2.28ZM194.3,91h-.45c0-.53.29-.82.88-.87h.44a.77.77,0,0,1-.65.87A.81.81,0,0,1,194.3,91Zm-.45,34.39h-1.32V125a3.4,3.4,0,0,0,1.32-.45Zm-2.63-21.84c1.17,0,1.76-.31,1.76-.88a.76.76,0,0,1,.87.67.74.74,0,0,1,0,.21v.42l-2.18.43h-.45Zm3.48,1.73h-.43a2.63,2.63,0,0,1-2.63,2.28v-1c.87,0,1.32-.29,1.32-.88l-.45-.87h2.19Zm9.38-92.53v-.44l.45-.86c1.23.46,1.84.9,1.84,1.31v.44a4.74,4.74,0,0,0-2.26-.44Zm1.41,13.42h.88v1.31a3.67,3.67,0,0,0-1.84-.43c0-.46.34-.7,1-.87Zm-1.41-7.63v1h-.86c-.48,0-.77-.32-.89-1Zm-2.63,10.35a3.48,3.48,0,0,0,1.32.43v.44H201Zm1.32,21h.45a.78.78,0,0,1-.66.88.88.88,0,0,1-.23,0h-.43c0-.46.32-.7.9-.87ZM198.3,39.55v-.44a4.38,4.38,0,0,0,2.29-1.31H201l.88.43-.45.88-.86-.45h-1v.89Zm1.76,3.59v.44c-.47,0-.76-.29-.88-.88v-.43a.77.77,0,0,1,.9.62.76.76,0,0,1,0,.26Zm-3.51,19.65v-.43h.88c.87,0,1.31.29,1.31.87ZM197.86,53l.44-.86a.78.78,0,0,1,.88.65.74.74,0,0,1,0,.21v.45h-.44Zm2.2,42.46v.88h-1.32v-.88Zm-.88-18.33a.78.78,0,0,1-.67.87.74.74,0,0,1-.21,0h-.87c0-.41.58-.84,1.75-1.32ZM197,75.78v-.45a.78.78,0,0,1,.88.65.89.89,0,0,1,0,.23v.43c-.52,0-.79-.27-.85-.85Zm-1.31-3.61v-.43h2.19v.88Zm.88,13.43h-2.28c.17-.71,1.22-1.47,3.16-2.29h.43v1a1.16,1.16,0,0,0-1.29,1,1.22,1.22,0,0,0,0,.33Zm4,13-3.16.45H197c0-.71.88-1.17,2.63-1.41h1Zm-.53-30.87c-.47,0-.76-.29-.88-.87h.88q1,0,1,.87ZM202.34,65a3.39,3.39,0,0,0-.89,1.84l-.86-.45A3.42,3.42,0,0,1,201,65l-.43-.88c0-.48.28-.77.86-.88h.89Zm.43-2.63h-.87c-.88-.48-1.31-.91-1.31-1.32V59.2a3.25,3.25,0,0,0,1.31-.45h.44l-.89,1.32v.52c.89,0,1.32.31,1.32.89Zm.88-4-1.72-.44V57l1.75.44Zm1.84-18.77c-.93,0-1.41.28-1.41.88a3.41,3.41,0,0,0-1.31-.45V38.66l.88.45h.43v-.43l-.43-.87,1.41-1h.87l-.87,1.4v.44Zm1.32-7.63c-.88,0-1.32.76-1.32,2.27V36h-1c-.88-.47-1.31-.9-1.31-1.31l1.31-1.76L202.77,31h.88a.8.8,0,0,1,.88.69.67.67,0,0,1,0,.2,3.79,3.79,0,0,0,1.84-.44h.44Zm-.88-.89h-.44a2.92,2.92,0,0,0-1-1.75v-.43a3.21,3.21,0,0,0,1.4-.45h.88a3.8,3.8,0,0,0-.86,2.65Zm1.31-7.53a.78.78,0,0,0-.87.67.74.74,0,0,0,0,.21h-.88V23.5a3,3,0,0,0,1.32-.53h.43Zm.45-4a.78.78,0,0,1-.65.88.88.88,0,0,1-.23,0h-.44V19.9l.44-.88c-.29,0-.44-.17-.44-.52l-.88.52V18.5l.44-.88,1.76.44Zm-.88-2.73h-.44V15h1.32a3.06,3.06,0,0,0-.86,1.75Z"/><path class="cls-1" d="M114.21,66.66c-.88,0-1.32-.34-1.32-1l1-1.66a.31.31,0,0,1-.35-.27.14.14,0,0,1,0-.09c-1,1.11-1.72,1.67-2,1.67v-.35a2.34,2.34,0,0,0-1.06.35l-.69-.35-.71.35v-.71c1,0,1.76-.67,2.1-2l-.34-.71v-.26h.34l.61.26.35-.62a2.79,2.79,0,0,1,1,.36l.7-.36-.34-.69a2.84,2.84,0,0,0-1.4.34h-.36l.35-.7a3.35,3.35,0,0,1-1-2h-1.38v-.36c0-.35.22-.58.69-.7a.3.3,0,0,0-.27-.35h-.08c0-.36.23-.55.71-.62a2.79,2.79,0,0,0-.36-1c0-.34.24-.58.7-.7a2.61,2.61,0,0,0-.34-1.31,17.59,17.59,0,0,0,.34-3.07V46.93l.62.35a.62.62,0,0,0,.7-.52.6.6,0,0,0,0-.19V46c0-.41-.23-.65-.7-.72h-.26l-1.41,1.06a2.45,2.45,0,0,0-.34-1.06l-.71.36h-.27l-.69-.36c0,.72-.68,1.32-2,1.68v.69h.61l.71-.34c0,.24.22.34.7.34V48c-1.7,0-2.64.35-2.73,1.05v1h1.67V49h1.06l-2,2.37V52h1l1.06-.61h.69a6.18,6.18,0,0,1-4.12,2.36v.36c0,.41.24.62.7.62a5,5,0,0,1-.7,2.36l.36.7v.36l-1-.71h-.62v.35c0,.48.43.7,1.31.7V59.8h-.35v1.06c0,.23-.2.35-.61.35v.36l.27.6c-.19,0-.38.36-.62,1.06l.35.71c-.35,1.1-.71,1.65-1,1.65a2.87,2.87,0,0,0,.34,1.06L101.41,68v.36h.6A3.63,3.63,0,0,1,100.7,71v.34l.35.62c-.7,0-1,.59-1,1.75l.35.62-.35.69a.61.61,0,0,0,.51.71h.19a3.06,3.06,0,0,0-.35,1.65l-.71-.34H99.3v.34a.62.62,0,0,0,.51.71.6.6,0,0,0,.19,0,1.58,1.58,0,0,1-1.32,1.66A3,3,0,0,0,99,81.56a2.47,2.47,0,0,0-1.41.61c0,.47.67.83,2,1,0,.47-.19.71-.6.71l-.71-.35-2,2.36v.71L96.58,90l-.62.36,1.67,1.39a3.46,3.46,0,0,0-1,.27l.35.71a5.48,5.48,0,0,0-1,2.71c1.12.59,1.67,1,1.67,1.4-2,0-3.06.91-3.06,2.73-.36,0-.57-.24-.62-.71V97.78c.29,0,.72-.43,1.31-1.31l-.35-.7c-.53,0-1.08.91-1.66,2.72a2.64,2.64,0,0,0,.34,1.06,17.38,17.38,0,0,1-1,4,.31.31,0,0,1,.35.27.14.14,0,0,1,0,.09l.7-.36v.71c-.34.65-.7,1-1,1a2.66,2.66,0,0,0,.35,1.06,2.11,2.11,0,0,1-.35,1,.64.64,0,0,0,.54.71h.17c.17.93.49,1.39,1,1.39V110h-.62v-.62h-.7c0,.47-.55,1.15-1.67,2,0,.46.21.69.62.69a2.14,2.14,0,0,1-.35,1q0,.36,1.05.36c0,.41-.55.76-1.66,1l.34.62-1,1.4v1.31h.71l.34-1.31h.62c0,.64.24,1,.7,1h.71v-1.32H94v1.32a.63.63,0,0,1-.53.7h-.88c-.34,0-.58-.24-.7-.7-.29,0-.62.46-1,1.41l.61,1c-.87,0-1.32.69-1.32,2.1l.36,1.75a.32.32,0,0,0-.36.27V124c.48,0,.71.33.71,1h.34l1-.62c0-.48-.33-.7-1-.7.29-1,.74-1.62,1.32-1.67.93.41,1.41.72,1.41,1v.36c-1.17,0-1.75.23-1.75.69l1.75.36v.35c-.7,0-1.06.2-1.06.61a2.82,2.82,0,0,1-1-.34v1.75a.63.63,0,0,0,.7-.53.49.49,0,0,0,0-.17.61.61,0,0,1,.71.51.6.6,0,0,1,0,.19l1.66-.44L94.57,128H94c0-.64-.24-1-.7-1h-.36v.27l.36.69a.33.33,0,0,0-.36.27v.43h.7l-.34.71q1.05,0,2.37,2l.7-.35v1.05l-.7-.34c-1.58-1.32-2.63-2-3.08-2s-.58.21-.7.62v.36c0,.69.46,1.05,1.41,1.05,0,.41-.36.6-1,.6v.36q.26,1.05,2,1.05v.7c-.64,0-1,.21-1,.62s.43.69,1.32,1.05c.46,0,.69-.43.69-1.32h.36l1,.62h.7a3,3,0,0,1,.35-1.67l.7.36h.34v-.36c0-.41-.24-.64-.7-.7a.31.31,0,0,1,.28-.35h.06c0-.36-.22-.55-.69-.62l-.7.26v-.6a1.55,1.55,0,0,0,1.75-1.33,1.48,1.48,0,0,0,0-.42l1,.71v-1H99l.26-.7v-.7h-1v-.72c.89,0,1.32-.67,1.32-2H99c0-.35.19-.57.6-.69v.69l.71-.35-.35-.59v-1h.69v-.35l-.34-.7a3.76,3.76,0,0,0,1-.26.31.31,0,0,0-.27-.36H101l.35-1.75h-.71a2.38,2.38,0,0,1,1.32-2.37l-.61-2.38a1.33,1.33,0,0,1,1.32-1l-.71-1.41c.24,0,.35-.1.35-.34v-.35l-.35-.62c.24,0,.35-.23.35-.7.65,0,1.11.62,1.41,1.67a5.78,5.78,0,0,0,4-2l-1.06-1.32v-.34c.71,0,1.06-.24,1.06-.71s-.23-.63-.7-.7l.7-1-.7-1V105a2.61,2.61,0,0,1,1,.35h.36V105c0-.41-.48-.61-1.41-.61v-.43a3.54,3.54,0,0,0,1.75-.36,3,3,0,0,0-.34-1c0-.64.43-1.08,1.31-1.32,0-.46-.44-.69-1.31-.69V99.19c.87,0,1.31-.79,1.31-2.37,0-.23-.33-.35-1-.35v-.34c0-.24.09-.36.26-.36,1.65-.41,2.46-1.75,2.46-4a.31.31,0,0,1-.35-.27v-.07a.31.31,0,0,0,.35-.27.11.11,0,0,0,0-.08v-.36l-.35-.7a.3.3,0,0,0,.35-.27.11.11,0,0,0,0-.08v-.27h-1.39v-.69c1.12-.17,1.67-.53,1.67-1v-.7l-.62-1q1.32,0,1.32-2v-.71a2,2,0,0,0-1,.36h-.36c0-.46.33-.7,1-.7v-1a2.13,2.13,0,0,0-1,.34h-.34v-.34l1.66-.62v-1c0-.46-.32-.7-1-.7v-.62a2.12,2.12,0,0,1,1,.36V78.14a2.61,2.61,0,0,1,.35-1l-.35-.62.35-.69-.7-1.06a3.51,3.51,0,0,0,1.75-.35c0-.41-.35-.62-1-.62a6.19,6.19,0,0,0,1.32-4.12c-.17,0-.27-.12-.27-.35a2.22,2.22,0,0,0-1,.35h-.7c0-.64.67-1,2-1V68l-.62.36h-.34V68Zm-4-8.16h.34a2.73,2.73,0,0,0,.7,1.67v.35h-.7a2.48,2.48,0,0,0-.36-1.06ZM92.54,112.1c-.34,0-.58-.24-.7-.7h.36a.61.61,0,0,1,.69.53.48.48,0,0,1,0,.17Zm-1.32,10.44h-.34v-.62c0-.69.2-1,.61-1Zm5.71-35.61V86h.7v.35C97.63,86.72,97.35,86.93,96.93,86.93Zm.35,7.18V92.72H98v.68a.62.62,0,0,1-.51.71A.67.67,0,0,1,97.28,94.11Zm-.35,11.13c0-.35.23-.58.7-.69v1.39h-.7Zm0,16.32a.61.61,0,0,1,.7.52.61.61,0,0,1,0,.19v.26c-.35,0-.58-.21-.7-.62Zm.7,4.73h-.35c-.35,0-.58-.22-.7-.7h.35a.63.63,0,0,1,.7.53A.48.48,0,0,1,97.63,126.29Zm-2-9.47.7.36a2,2,0,0,0-.36,1h-.34l-.71-.35Zm-2-9.56v-1c.41,0,.62.23.62.69v.27Zm0,7.19v-.69h1v.69Zm1,7.46H94v-.7c.29,0,.72-.35,1.31-1h1.06a3.44,3.44,0,0,0,.26,1,2.66,2.66,0,0,1-1.32-.35c-.47,0-.69.37-.69,1.06Zm-.36,6.75h1.05v.71h-.35c-.34,0-.58-.22-.7-.7Zm2.11,1.67H95.26v-.62h1.06Zm0-2.72h-.7v-.34c.46,0,.7-.21.7-.62h.61ZM98,129.37l-.36.61-.7-.27c0-.41.23-.64.7-.69H98Zm.69-11.58a2.61,2.61,0,0,0-1.05.35l.36-.7h.68Zm-1.05-15.27c0-.34.24-.55.7-.6H99v.6Zm1.67,2.37H99a2.82,2.82,0,0,0-1.05-.34v-.27h.34a2.7,2.7,0,0,0,1,.27Zm0-5.08a2.15,2.15,0,0,0-1.31.7h-.36v-.36c0-.34.24-.55.7-.6h1Zm.34-3.68H99.3c-.64-.36-1-.71-1-1.06H99c.41,0,.6.23.6.7Zm-.34-1.41c0-.36.23-.55.7-.62v1Zm1.4,5.43a.63.63,0,0,1-.7-.56v-.4h.7ZM110.17,66a2.79,2.79,0,0,0,1.41-.36v.71h-1.41Zm-.34,1a.62.62,0,0,1,.69.71h-1Zm-.36,1.41,1.75.35v.61l-2.1.35c0-.24-.08-.35-.27-.35Zm1.41,3.06c0,.42-.24.62-.71.62h-.34a2.27,2.27,0,0,0-.71-1.32h1a.61.61,0,0,0,.51.71.34.34,0,0,0,.2,0Zm-2.72,2.72h.69c.65.36,1,.68,1,1a2.16,2.16,0,0,0-1,.36c-.41,0-.64-.24-.69-.7Zm0,8.42a2.11,2.11,0,0,0,1-.35l.35.71h-1.31Zm-1.41,2.73v-.36h1.41a.62.62,0,0,1-.52.71.54.54,0,0,1-.18,0l.34,1.66h-.7a2.23,2.23,0,0,0-.35-1l.35-.7a.31.31,0,0,1-.35-.27v-.07Zm-5.08-6.41v-1h.7v1Zm1,31.84a2.71,2.71,0,0,0-.35-1.06c0-.34.23-.55.69-.6l.36,1.66Zm.7-4.74v-.7h1v.7Zm.62,3.42h-.27a.63.63,0,0,1,.57-.69h.39a.61.61,0,0,1-.51.71H104Zm0-4.47c0-.23-.21-.34-.62-.34v-.62a2.12,2.12,0,0,0,1-.36q0,.36,1.05.36c0,.37-.46.68-1.39,1Zm2.44-1.66a.61.61,0,0,1-.52.7h-.17c0-.7-.48-1.05-1.41-1.05v-1h.71a2.68,2.68,0,0,0,1.39.6Zm2.64-9.83a2.63,2.63,0,0,1-1.32-.35c-.41,0-.64.24-.7.71v.34c.94,0,1.41.33,1.41,1-.47,0-.71.58-.71,1.75l-.7-.35a2.76,2.76,0,0,1,.36-1.4v-.35c-.65.35-1,.7-1,1l.27.7h-.27l-1-.7v1.32h-.34l-.71-.27a10.54,10.54,0,0,1,2.1-3.77v-.7h-.34a6.89,6.89,0,0,1,.34-2l-.34-1.67,1-.7h.36c.17,1.32.52,2,1.05,2v.36A8.61,8.61,0,0,0,107.1,92v.35l2,.36Zm0-2a.54.54,0,0,1-.44.61.48.48,0,0,1-.17,0h-.35c.35-.65.67-1,1-1Zm1,3.33h-.7v-1h.7Zm0-4.38h-1.32a.73.73,0,0,1,.62-.71h.7Zm.34-9.82h-.36a2.65,2.65,0,0,0-.34-1l-1,.7h-.34a23.71,23.71,0,0,1,.6-2.37c0-.24-.19-.35-.6-.35a2.36,2.36,0,0,0,.6-1.32h.71a2.76,2.76,0,0,0,.34,1.32h-.34c.23,1.31.58,2,1.06,2A2.48,2.48,0,0,0,110.51,80.52Zm.36-5.09q-.62,0-.72-.69h.36a.62.62,0,0,1,.7.52.48.48,0,0,1,0,.17Zm.69-2c-.93.12-1.41.43-1.41,1-.28,0-.72-.55-1.31-1.67v-.36a8,8,0,0,0,2.72.7Zm1.67-1L111.56,72v-.26h.62c.71,0,1.07.21,1.07.6Zm-.35-1.32v.34l-1.32-1h-.35l-.7.36v-.36l.36-.7a2.23,2.23,0,0,1,2,1.4Z"/><path class="cls-1" d="M96.41,150c.69,0,1.13-.59,1.31-1.76L96,146.46a2.85,2.85,0,0,1,.45-1.32,41.76,41.76,0,0,1-8-9.82v-.44l.88.44h.44v-.87H89.3A2.29,2.29,0,0,0,87,132.69v-.44c0-.52.29-.81.89-.88l-.44-1-.88.53c-.7-2.11-1.32-3.16-1.75-3.16h-.45a4.66,4.66,0,0,0,.88,2.2v.43h-.43c-.47,0-1-.88-1.76-2.63,0-.29.29-.44.88-.44v-.88H82.19c0-.52.3-.81.88-.88,0-.52-.29-.81-.88-.87v.87h-.87a2.86,2.86,0,0,1,.43-1.31l-.43-1v-1l.87.44h.44v-.44L77.71,118l.45-.88v-.43h-.88v-1h1.31v-.87l-2.19.43h-.87c-.53,0-.83-.29-.88-.88V113l.88-1.31-.45-.87a.4.4,0,0,0,.45-.33.24.24,0,0,0,0-.12V110H70.61v-1a3.1,3.1,0,0,0,1.32-.45.38.38,0,0,0-.33-.43.2.2,0,0,0-.11,0,.39.39,0,0,1,.32-.44h.12a1.61,1.61,0,0,0-1.44-1.76h-.31v-.87h2.63a.39.39,0,0,0-.34-.44h-.1a3,3,0,0,1,.44-1.32v-.43l-1.32.88a3.14,3.14,0,0,1-3.08-2.28l-2.29.45v-.45c0-.41,1.2-1,3.61-1.75,0-.47-.3-.76-.88-.88h-.44l-.88.45c0-.59-.76-.88-2.27-.88v-.89A10.53,10.53,0,0,0,67,97.1a8.33,8.33,0,0,0-2.19-4.47h.45c-2-2.92-3.78-4.38-5.36-4.38v-.53l.53-.88a7.86,7.86,0,0,0-2.73-1.32l.89-1.31-.89-1.32V82l1.32.88.88-.44c0,.88.62,1.47,1.84,1.76h.44v-.88h-.87v-.88h.87v-.89a3,3,0,0,0-1.32.44h-.43a.39.39,0,0,1,.32-.44h.11a12.39,12.39,0,0,1-2.27-3.15c-1.46.86-2.2,1.75-2.2,2.63-.58-.12-1.17-.86-1.75-2.2a3.38,3.38,0,0,1,1.31.43c1.18-.4,1.75-.84,1.75-1.31V76.22H55.53l-.88-.43.44-.88V74H53.77c0,1.22-.46,1.84-1.39,1.84-1.13-1.82-2-2.72-2.63-2.72v-.89h1.31L51.49,74h.89l.43-2.2c-2.63-.24-4-.67-4-1.32h.44l.88.44a.39.39,0,0,1,.32-.44h.11c0-1.46-.43-2.34-1.31-2.63h-.44l-.88.44c0-1.23-.76-1.84-2.27-1.84V65.08h1.84L46.23,62.9a.92.92,0,0,0-1,.86,2.94,2.94,0,0,0-1.32-.43c0-.29.15-.43.45-.43a3.1,3.1,0,0,0-.45-1.32,7.63,7.63,0,0,1,.88-2.72L44.39,58q3,0,5.79-4.82v-1h-.45l-.87.44.44-2.19h1.31l-.43.88v.87h.88a.77.77,0,0,0,.87-.64.88.88,0,0,0,0-.23h-.87v-.45h.43V49.12h.44a.77.77,0,0,0,.65.88h.23l-.43.87h.43L56,48.68a3.38,3.38,0,0,0-.44-1.32,10.17,10.17,0,0,0,4.38-4.47,3.47,3.47,0,0,1,1.41.44c.34,0,.94-1.17,1.75-3.51l-.88-1.41h2.63C69,37,71,35.35,71,33.6l.87.43a.76.76,0,0,0,.88-.65.89.89,0,0,0,0-.23l-.43-.87h1.75v-1h-.88v-.43h.44a3.73,3.73,0,0,0,1.85.43v-.87l-.45-.88a9.15,9.15,0,0,1,3.08-1.75v-.88l-.45-.88A3.1,3.1,0,0,1,79,26.5h.44A2.8,2.8,0,0,0,79,25.18l.44-2.29-.88-.43v1.31c-.76,0-2.55.88-5.35,2.63V25.19c-2.32-.77-3.5-1.39-3.5-1.85-2.41,1.31-3.61,2.33-3.61,3.16-2,.93-3.06,1.8-3.06,2.63H60.87a.91.91,0,0,0-1,.86l.53.89H58.6l.88,1.4v.44l-2.2-.44.88-1.4v-.44h-.88c-.47,0-.76.29-.88.87l.45,1q-1.32.61-1.32,1.32a81.22,81.22,0,0,0-11.14,8.85h-.45V42c3-3.4,4.49-5.47,4.48-6.24,2.63-3,3.94-5.11,3.94-6.22,2.4-.88,3.59-1.6,3.59-2.2l-.43-.86H56q6.22-4.58,6.23-6.67c0-.53-.29-.82-.87-.89,0,.65-.62,1.24-1.84,1.77h-.88v-.88H57.7c0,1.74-.72,2.63-2.18,2.63q-4.74,4.91-5.8,4.9v.45l.45.87a3.45,3.45,0,0,1-1.32.45q-3.6,3.59-3.6,4.47Q35.1,43.26,35.08,45.08h-.44c-.52,0-.83-.29-.88-.88v-.87c0-.47.29-.76.88-.88a3.23,3.23,0,0,0-.44-1.31c0-.53.3-.82.88-.88,0-.53-.29-.82-.88-.87l-.87.43v-.43l.43-1c-.88-.4-1.31-.84-1.31-1.31v-.44l.88.44h.43v-.87h-.87c0-.47.31-.76.88-.88,0-.53-.29-.82-.88-.88l.88-1.32v-.87c0-.64-.76-1-2.27-1v-.87h1a.78.78,0,0,1,.88.66.74.74,0,0,1,0,.21.76.76,0,0,0,.87-.64.89.89,0,0,0,0-.23l-.44-.88a.39.39,0,0,0,.44-.32v-1l-.44-2.63a8.44,8.44,0,0,0,.89-2.72h-.89V22l.44-.88H32.89c0-.58.45-.88,1.32-.88v-.87h-.87l.43-.88v-.43H32.46v-1l.43-.88,1.32.88h.45V15.79c-.48-.88-.91-1.32-1.32-1.32h-.88l-1.41.88-1.31-.88H29.3l-.43,2.2H28l.88-1.32v-.88c0-.46-.31-.76-.88-.88h-.44c-.88.47-1.31.91-1.31,1.32s.43.88,1.31.88v.43H27.1c-1.1,0-1.84-1-2.18-3.06l.43-.89q0-.78-5.78-1.31l-.88,1.31.44.89c-.52,0-.83.28-.88.88a.79.79,0,0,0,.67.87h.21l-.88,1.76a3.42,3.42,0,0,0,.44,1.41q-.44,5.52-.44,6.13a3.31,3.31,0,0,0,.88,1.84l-.88,1.31,1.32,2.2-2.28,3.16c0,.58.46.88,1.4.88V34a3.43,3.43,0,0,0-1.4.44c0,.59.32.88,1,.88a3.38,3.38,0,0,1-.43,1.31l.43.89-1,.43c0,.64.61,1,1.84,1v1.32c0,.59-.44.88-1.31.88l.43,2.19v.44l-1-.44v.87a3.49,3.49,0,0,1,1.4.45l-.44.87a.38.38,0,0,1-.43-.32.24.24,0,0,1,0-.12H16.41v.44c.93,0,1.41.33,1.41,1l-.53.87a5.09,5.09,0,0,0,2.28-.87v.87c0,.35-.91,1-2.73,1.76,0,.58.48.88,1.41.88v.44a3.56,3.56,0,0,0-1.41.43l.45.88v.44A3.39,3.39,0,0,1,16,51.75v1.41l-.44.87.44.88c-.47,0-.75.29-.87.88v.44l.43.88c-1.17,0-1.75.29-1.75.87l.87,1.31c0,.65-.29,1-.87,1,0,1.74.58,2.63,1.75,2.63v.43c-1.1,0-2,1.63-2.63,4.91l.43.88-.86.43.43.88c-1.32,0-2,.74-2.2,2.2q-3.33.62-7.1,7.11l-1-.45H1.75v.45l.89,1.31H1.75C1.32,83.16.7,84.19,0,84.19a.39.39,0,0,0,.32.44H.44a.39.39,0,0,1-.34.44H0a12.61,12.61,0,0,1,.89,4h.43a.78.78,0,0,0,.88-.65.81.81,0,0,0,0-.22l2.28,1.32c2.05,0,3.06-.45,3.06-1.32l2.2.44h.43V86.4h1.41a.39.39,0,0,1-.32.44h-.11a.78.78,0,0,0,.65.88.81.81,0,0,0,.22,0c0,.63-.29,1-.87,1L12,90v.88H10.7c0,.7-.61,1.43-1.84,2.18,0,.59.62.88,1.84.88v1.41l-1.39-1-.89.44,1.75,2.28H9.74l-.88-.43a.38.38,0,0,1-.32.43.24.24,0,0,1-.12,0c0,.29.91,1,2.73,2.2a3.34,3.34,0,0,1-1.41-.45c-.41,0-1,.74-1.75,2.2v.88l1.32-.88h.43a3.46,3.46,0,0,1-.43,1.4l.43.87c-1.75,0-2.63.45-2.63,1.32a.78.78,0,0,0,.65.88.89.89,0,0,0,.23,0,31.38,31.38,0,0,0-.88,4.91l.88.44a3.24,3.24,0,0,1-.45,1.32,1.54,1.54,0,0,0,1,1.57l-.89.61H7.54v.08C5.82,115.7,4.12,117,2.39,118.2c1.68,1.63,3.24,3.8,4.92,5.46a.9.9,0,0,0-.2.51,4,4,0,0,1,2.2,1.32h.25a6.1,6.1,0,0,0,1.09.53,3.66,3.66,0,0,1-3.11,1.67v.88H10.7a3.15,3.15,0,0,1,.88-1.76l-.3-.62a6.17,6.17,0,0,0,4.33-.31c.15.74.27,1.49.35,2.24-.46,0-.75.3-.87.88v4.48H16v.43h-.87v.88l.87,1.32h-.87V137H16v1h-.87v.88l1.75-.88-.43-1v-.45l.88.45,1-.45-.43-.87v-.88l1.31-2.2-.44-.86a2.44,2.44,0,0,1,2.63-1.85V129h-.44l-.88.44c0-.29-.29-.44-.87-.44l.44-.88.88.45h.43c.46,0,.91-.59,1.32-1.76l-.44-.87c.29,0,.58-.45.87-1.32l-2.18-2.72v-.44c0-.47.29-.76.87-.88a3.23,3.23,0,0,0,.44,1.32c1.16-.7,1.75-1.32,1.75-1.75v-.44a3.41,3.41,0,0,0-1.31.45h-.44v-.88h1.32l-1.32-2.2-1.31.88a2.12,2.12,0,0,1,1.75-2.28c.58,1.23,1,1.85,1.31,1.85H24v-.45a.93.93,0,0,0-.87-1c0-.88.6-1.31,1.84-1.31v-1.75a3.34,3.34,0,0,0-1.41.45,4.16,4.16,0,0,0-2.19-.45v-.44c0-.58.44-.88,1.31-.88v-.87H22.2l-.88.44-.44-.88V110c2.63,0,4-1.19,4-3.59-.35,0-.53-.14-.53-.45l-.88.45V106c0-.52.29-.81.88-.86L24,104.2c.64-1.52,1.31-2.27,1.84-2.27v-1.32l1.31-1.76c0-.53-.28-.82-.86-.87a3.22,3.22,0,0,1,.43-1.31l-1.32-1.85H27.1v-.44l-.43-.87-.88.43v-.88l1.31-1.75V89.56l-.43-2.29L28,86.4a3.23,3.23,0,0,0-.44-1.31A3.73,3.73,0,0,0,28,83.33V80.17c0-.58.43-.88,1.31-.88v-.87h-.88c0-.47.29-.76.88-.88l-.43-.88v-.44c0-.52.29-.81.87-.88s1,.88,1.76,2.63l1.39-.87V78H32c.7,1.17,1.32,1.77,1.75,1.77.89,2.1,1.61,3.15,2.2,3.15a.39.39,0,0,1-.45.44c0,.59.89.88,2.64.88l-.44.88a10.86,10.86,0,0,0,3.59,4,3.37,3.37,0,0,1-.43,1.32v.45a.79.79,0,0,0,.88-.69.61.61,0,0,0,0-.19c1.63,2.5,3.12,3.82,4.47,3.94l-.52.88v1l1.39,1.75-.43.89a.37.37,0,0,1,.43.32.2.2,0,0,1,0,.11l1.76-1.32a3.52,3.52,0,0,1-.44,1.77c0,.87.59,1.31,1.76,1.31a.78.78,0,0,1-.67.87H49.3l.88,1.41c1.46,1,2.2,1.87,2.2,2.63a.38.38,0,0,0,.43-.32.2.2,0,0,0,0-.11c1.32,1.46,2,2.18,2.28,2.18v1.32a3.33,3.33,0,0,0,.44,1.4c1.4,0,2.71,2.37,3.95,7.11h.43l1-.44a3.42,3.42,0,0,1-.43,1.32,3.23,3.23,0,0,0,2.63,1.31c1.7,3,2.87,4.49,3.51,4.48a3.23,3.23,0,0,1-.44,1.31v.44H67l.52-1.75h.87L68,126h2.19a4.82,4.82,0,0,0,3.07,1.75v.88H71.91l.45,2.28h1.31v-1.41h.44v.88l-.44,1a3.42,3.42,0,0,0,1.4-.43h.45v1.75l-1.85,2.2c0,.58.32.88,1,.88s.88-.45.88-1.32h.86a.77.77,0,0,1,.88.66.74.74,0,0,1,0,.21h-.44A3.72,3.72,0,0,0,77.7,138L79,137h.44L79,138v.89a2.78,2.78,0,0,0,1.31-.45c.48,0,1,.59,1.41,1.76.88-.47,1.31-.91,1.31-1.31a3.48,3.48,0,0,0,1.32.43V141H82.63l-2.29-.43v.88a7.24,7.24,0,0,1,3.18.87C85,142,85.7,141.57,85.7,141l-.44-.87.89-.45h.43a1.16,1.16,0,0,0,1,1.32,1,1,0,0,0,.35,0c-.12.71-1.15,1.43-3.07,2.2L87,146a.4.4,0,0,0,.45-.34.21.21,0,0,0,0-.11l1,.45-.52.86v.45h1.4v-.88h.44v.43l-.44.89h.87a3.7,3.7,0,0,0,1.76-.44,3.69,3.69,0,0,0,1.75.44v.43l-2.63.45v.43a.78.78,0,0,0,.66.88h.66l.88-.45a1.42,1.42,0,0,0,.16.45h3ZM55.53,77.1h.87v1.32h-.87Zm20-51v.88c-.53,0-1.32.88-2.29,2.63l-1.31-.88Zm-5.79.88.44-.88a.79.79,0,0,1,.88.68.67.67,0,0,1,0,.2,3.92,3.92,0,0,1,2-.43c-1,.61-2.1,1.31-3.34,2.18Zm.87,2.63v.88a3.49,3.49,0,0,0-1.32.44L68.86,30A3.57,3.57,0,0,0,70.61,29.56ZM68,27.81v.43c0,.58-.32.89-1,.89h-.44C67.1,28.24,67.52,27.81,68,27.81Zm-5.34,7.1a.83.83,0,0,1,.77-.88h.1l.88.44a.78.78,0,0,1-.66.88H62.64Zm-6.24,8h.88v.44c-.4,0-1,.73-1.75,2.19A5.45,5.45,0,0,1,56.4,42.89ZM8,105.09v-.89h.87a.78.78,0,0,1,.88.66.88.88,0,0,1,0,.23Zm1.32,6.22H8.86l.45-1.75a.88.88,0,0,1,0,1.75Zm1.39-3.59-1.84-.45V106h.45c.93.48,1.39.91,1.39,1.32Zm-1.39-7.11.43-.88c.64,0,1,.29,1,.88Zm4.39,9.9a2.36,2.36,0,0,0,.08-.45h.7A2.26,2.26,0,0,0,13.7,110.51Zm1.39-3.17c-.47,0-.76-.29-.88-.87V106a.77.77,0,0,1,.88.65.88.88,0,0,1,0,.23ZM17.29,134a3.4,3.4,0,0,0-.45,1.32h-.43v-.44a3.38,3.38,0,0,0,.43-1.31h.45Zm-.88-.87.43-1.76h.45c.63,0,1,.3,1,.88a3.36,3.36,0,0,0-1.84.82Zm4-5.35H20V126h.45Zm.43-89.73L20,37.61l.45-.88.87.43Zm4.47,62.18h-.43a.93.93,0,0,1-1-.87h1.4Zm-.43-82.09c0-.3-.18-.45-.53-.45q0-.78,1-1h.44c.59,0,.88.32.88,1a3.13,3.13,0,0,0-1.75.39Zm1.75,2.19c-.53,0-.82-.29-.88-.87v-.52c.88.48,1.31.91,1.31,1.32Zm2.2,0V19l.87.45a.78.78,0,0,1-.72.81h-.15Zm.87-3.23V15.79h.44a2.92,2.92,0,0,0,.44,1.31Zm11.57,28a2.92,2.92,0,0,0-1.31.44v-.87h1.31Zm0-.88h-.43v-.87c.58,0,1.31-.59,2.2-1.76a4.18,4.18,0,0,0,.43,2.2Zm1.77,20.45v-.89h.43a.8.8,0,0,1,.88.69.67.67,0,0,1,0,.2ZM48,73.07a2.92,2.92,0,0,0-1.75.88h-.52v-.88a3.81,3.81,0,0,0,1.84-.44H48Zm6.24,5.35c-.53,0-.83-.29-.88-.88v-.88h.43a.77.77,0,0,1,.88.65.89.89,0,0,1,0,.23Zm7.1,34.2a4.85,4.85,0,0,0-2.29-.43v-.45c0-.52.29-.81.88-.87h1.41Zm7.09,10.19c-1.81-.31-2.72-.74-2.72-1.32V121h.88a3.31,3.31,0,0,0,1.84.88Zm5.26-10.19c0-.88-.59-1.31-1.76-1.31v-.44a3.19,3.19,0,0,0,1.76-.44l1,1.76Zm5.79,18.68H77.28v-1h2.2Zm3.16,6.15H81.3c0-.48.29-.76.87-.88h.45Zm7.54,4.91-1.32,2.19c-.93-.41-1.39-.84-1.39-1.31,1.22,0,1.84-.44,1.84-1.32h.87ZM95,149l-.44.89-.88-.45c0-.46.29-.75.88-.87H95Z"/><path class="cls-1" d="M378.88,28.42V28l.53-1c-.36,0-.53-.14-.53-.45a.41.41,0,0,0-.45.34V27c-.29,0-.43-.14-.43-.45a7.6,7.6,0,0,0-5.17,1.85h-.45V26.57h-1V28h-1.35l.92-1.41v-.43h-1.84c.46-.93.93-1.41,1.39-1.41a3.29,3.29,0,0,1-1.39-2.37c-1.89.24-2.82,1.18-2.82,2.82a3.59,3.59,0,0,0,1.84-.45h.45a9.83,9.83,0,0,1-2.24,4.21c1.24,0,1.85.3,1.85.88v.44h-1l-1.4-.87h-.44v.87c0,.64.62,1,1.84,1v1.4c-.47,0-1.07.47-1.84,1.4a.85.85,0,0,0,.71,1,.53.53,0,0,0,.25,0h.45a3.42,3.42,0,0,1,.43-1.39l2.37.43a.84.84,0,0,0,1-.7.57.57,0,0,0,0-.26c.6,0,.88.32.88,1-1.86,0-2.8.79-2.8,2.37h-5.09v.88h2.28v1a3.41,3.41,0,0,0-1.84.88v1.4l-3.24,2.81a3.58,3.58,0,0,0,1.84-.44h.53c0,.3-.19.44-.53.44,0,.65.46,1,1.4,1v.44l-2.81.52v.45l.53,1c.29,0,.43-.17.43-.52h.92v.52h-1v.44l.45.88h-.45c1.76,1.17,2.7,2.29,2.82,3.34h-1v-.53c-2.8.17-4.21,1-4.21,2.37a3.49,3.49,0,0,0,1.41-.45c.46,0,.93.62,1.41,1.85l-1.84.88q-1.86,3.33-3.25,3.33v.43c.46.93.93,1.39,1.4,1.39l1.4-1v1a.86.86,0,0,1-.72,1h-.24l1,2.27c-.34,0-.67,1.08-1,3.25l-2.8-.43v-.44a2.91,2.91,0,0,0,1.39-.52v.52c.47,0,.94-.64,1.41-1.93a16.22,16.22,0,0,1-1-3.68h-.45c-.46,0-1.22,1.09-2.27,3.25v.43l.43,2.37c-.29,0-.43.14-.43.45s.28.52.88.52v2.28h1V69h.88c.63,0,1,.3,1,.88v.52c0,.6-.33.89-1,.89a2.91,2.91,0,0,0,.52,1.39v.45h-1v-.88h-1v.43l1.41,1.84-.45,2.37a.41.41,0,0,1,.45.36v.09c-.53,0-.83.31-.88,1a.79.79,0,0,0,.88,1V80.7h-1.84v.43l1,1.41c-1.12,1.87-1.91,2.81-2.37,2.81h-.88l.45-1v-1h-1.85V82l.87.53v-1a7,7,0,0,1-3.68-1.4c0-.53.29-.82.88-.89l1,.45.45-2.37h-.88l.43-.88c0-.64-.61-1-1.84-1,0-.64.47-1,1.41-1V73.16c0-.53-.33-.82-1-.88a.38.38,0,0,1,.32-.44h.11c-.41-4.68-1.18-7-2.29-7l.45-1v-.44c0-.71-.77-1.17-2.29-1.41v-1l.45-.88-1-.52.53-.88q0-.8-1-1c-.65-.12-1,.47-1,1.4h-.45a5.8,5.8,0,0,0-1.84-3.77V55a10.5,10.5,0,0,0,3.25,1c0-.35.14-.52.43-.52-.75-1.23-1.31-1.84-1.84-1.84l-1,.52a3.56,3.56,0,0,0-.43-1.41v-.52c.29,0,.43.18.43.52l1-.52c0-1.11-.6-1.73-1.84-1.84l.88-1.41V48.5a.38.38,0,0,0-.43.32.24.24,0,0,0,0,.12c-1.58-.23-2.37-.7-2.37-1.4l1-1.4V45.7a3.33,3.33,0,0,0-1.41.44h-.43V44.73a4,4,0,0,0,1.4-.44c0-.52-.32-.84-1-1l.45-.88v-.52c-2.75,0-4.13-.77-4.13-2.28v-.53H337v1h1.4v-1.4l-1.84-1.4c-.23-1.88-.7-2.81-1.4-2.81V32.63a4.09,4.09,0,0,0,1.4-.44l-.53-1-1.39,1a13.68,13.68,0,0,0-.44-3.25l.45-1-1.76-2.8v-.45h1v-.52A4.5,4.5,0,0,0,331.86,21l.53-2.82-.53-.86h1V15.88a3.11,3.11,0,0,1-1.41-.53l.43-.88c.36,0,.53.15.53.44l.88-.44a3.7,3.7,0,0,0-.43-1.84l.43-1v-.45a3.82,3.82,0,0,0-1.84.45,4.83,4.83,0,0,0-2.28-.45c-.47-1.31-1.11-1.92-1.93-1.92V8.42l.53-2.8-.53-1A8.12,8.12,0,0,0,328.63.43L327.71,0c-.41,0-1.53,1.41-3.33,4.21a3.42,3.42,0,0,1,1.39.43c0,.65-.29,1-.87,1-.64,1.51-1.27,2.27-1.93,2.27a.46.46,0,0,0,.38.53h.15c0,.47-.79,1.41-2.37,2.8,0,.59.31.88,1,.88l-1.4,2.37a4.14,4.14,0,0,0,.44,1.41c-.47.93-.94,1.41-1.41,1.41l.53.86.88-.43v.43c-.82,1.58-1.44,2.37-1.84,2.37a3.66,3.66,0,0,0,.39,1.84c-.29,1.12-1.31,1.91-3.25,2.37a.4.4,0,0,0,.34.45h.11a3.59,3.59,0,0,1-.45,1.84c0,.53.62,1.46,1.86,2.8h-1.37l-.88-.43c0,.29-.17.43-.53.43.65,1.23,1.44,1.85,2.37,1.85-2.16,1.63-3.25,2.74-3.25,3.32a.77.77,0,0,0,.65.88.45.45,0,0,0,.23,0,3.46,3.46,0,0,1-.43,1.41l.43,1a11.93,11.93,0,0,1-3.25,4.65.87.87,0,0,0,.75,1h.23l-1.85,3.24c1.4.59,2.16,1.21,2.28,1.84v.45l-.88-.45h-.53v.45c0,.64.65,1,1.94,1l-.53,1a3.77,3.77,0,0,1-1.41-.53h-.47v1.4l2.37,1v.44c-1.87,0-3,1.55-3.33,4.64H310v-.43h.88v-1c0-.52-.29-.82-.88-.88s-.94.62-1.41,1.85a9.71,9.71,0,0,1,1.84,2.8h-1c0,.64.64,1,1.93,1V62a4,4,0,0,0-3.77,2.28V65.7l.43,1h-.43A3.7,3.7,0,0,0,308,68.5a4.29,4.29,0,0,0-.43,1.93v1.85h1.84v.43c-2.16.42-3.25,1-3.25,1.84h1.41l1-.43c-1.05,2.8-2,4.21-2.8,4.21,0,.64.29,1,.88,1l1-.53v1.41c-.94,0-1.41.33-1.41,1V83h.45l1-.43-.4-1h1.4l.45,2.37a3.83,3.83,0,0,0-1.85.44l.44,1h-1.41l-.43-1.93h-1v1l1,1.4v.44L303.41,90l.52.88c-.35,0-.67.47-1,1.4a7.22,7.22,0,0,0,1.85,3.34l1-.53c0,.94.14,1.4.43,1.4a6.6,6.6,0,0,1-3.24,5.62c0,.64,1.08,1.31,3.24,1.84v1l-2.28.45c0,.93.62,1.39,1.85,1.39v.45a3.26,3.26,0,0,0-1.85.52.78.78,0,0,0,.67.87.81.81,0,0,0,.22,0h.52l.87-.43v1.41c-1,0-1.75.78-2.28,2.36.48.94.94,1.4,1.41,1.4l-.52.88v.53l.52.88a.39.39,0,0,0,.44-.45h.88v.45h-.45v1.84h-.43a.92.92,0,0,1-1-.88l-2.82.88V118c2.51.29,3.78.77,3.78,1.41v.44a.39.39,0,0,1-.44-.32v-.12l-1,.44,1,2.36h-.52l1,1.32-.44,1,.87.45h.45l2.37-1.41q1,0,1,1.41h.48l1-.45v1.84h.86a13.65,13.65,0,0,1,1.41-3.23l1,.43a.77.77,0,0,0,.88-.65.45.45,0,0,0,0-.23v-.44h-1.84a7.89,7.89,0,0,0,1-2.8h-1v-.52a3.8,3.8,0,0,0,1.84-.45,33.17,33.17,0,0,0-.88-3.25l.88-1.39c0-.65-.43-1-1.31-1v-.87c0-.64.43-1,1.31-1v-1.38h-.88v-.45h1.41v-1c0-.53-.32-.84-1-1,0-.53.32-.82,1-.88,0-.53-.32-.84-1-1,0-.71.79-1.79,2.37-3.25v-1.84l-.53-1a.86.86,0,0,0,1-.74,1,1,0,0,0,0-.24v-.43c0-.58-.46-.88-1.41-.88V96h1.41V95.6l-.43-1a3.2,3.2,0,0,1,1.84-1v-.88a3.33,3.33,0,0,0-1.41.44h-.43v-1c1.51-1.87,2.63-2.8,3.25-2.8v-.88h-1.84v-1h.77v-.89a3.45,3.45,0,0,1-1.39-.52c0-.46.63-.94,1.92-1.4a3.37,3.37,0,0,0-.53-1.4c0-.53.33-.82,1-.89l-.45-3.25v-.52l.88.52v-.52l-.43-.87,1.39-1a4,4,0,0,0-.43-1.85,11.7,11.7,0,0,0,1.31-4.2,3.46,3.46,0,0,1-.43-1.4l2.8-4.66a4.53,4.53,0,0,0-1.41-2.36l1.41-2.81-1-.43,1.39-2.82V55h-.79v-.88a3.49,3.49,0,0,0,1.4-.52c0-.29-.17-.44-.53-.44q1.68-4.21,3.34-4.22a12.46,12.46,0,0,1,3.24,2.81l-.53,1v.45h1.41l-.43,1v1.32a5.16,5.16,0,0,0,1,2.8l-.53,1a4.14,4.14,0,0,0,1.41.44l-.88,1.93c1.4,2.75,2.34,4.12,2.8,4.12l-1.4,1.93c.82,1.52,1.44,2.28,1.85,2.28l1-.44v1c-.94,0-1.58.77-1.94,2.28L338,75.53h-1V76c1.22,1.41,1.84,2.34,1.84,2.8v.53l-.88-.53h-.53v1q0,1,1.41,1L338,82v1h.43l1-.43.44.88v.52c-.29,0-.44-.17-.44-.52-.52,0-.85.31-1,1v.45l2.29,1.39-.45,1-.87-.44h-1c-.93.47-1.39.93-1.39,1.4L338.44,90c.3,0,.45-.17.45-.53a.84.84,0,0,1,1,.7,1.13,1.13,0,0,1,0,.26v.45a4.16,4.16,0,0,1-.44,1.92c0,1.24,1.14,2.63,3.24,4.21h-2.37v.88h1l-.53,1a2.83,2.83,0,0,0,1.39-.53q.54,0,1.41,2.82c-.93.53-1.41,1-1.41,1.39l.53,1,.88-.45h.53v.87h-1.41l.45,1,1-.44h.43v1.41h-1v.44c0,.59.32.88,1,.88a.84.84,0,0,1-.7,1,1.13,1.13,0,0,1-.26,0,.85.85,0,0,0,.71,1,1,1,0,0,0,.25,0l-1,1.41.53.88a4,4,0,0,0,1.41-.45h.43v.45a.84.84,0,0,1-.7,1,1.13,1.13,0,0,1-.26,0l2.37,2.8a5.25,5.25,0,0,1,1-2.37c-.46-1.87-1.1-2.8-1.94-2.8a6.12,6.12,0,0,0,1.41-3.25,1.23,1.23,0,0,1-1.4-1,1.38,1.38,0,0,1,0-.35c.65,0,1-.77,1-2.29-1.58-2.23-2.37-5.49-2.37-9.82v-1h.53c0,.93.6,1.41,1.84,1.41v.52h-1v.88a.86.86,0,0,0,.73,1,.71.71,0,0,0,.29,0l-.45,1a15.69,15.69,0,0,0,3.25,5.09h-.53c-.88-.48-1.31-.94-1.31-1.41-.53,0-.84.33-1,1a3,3,0,0,0,2.76,2.28v.52a3.57,3.57,0,0,0-1.41.44c.59,2.17,1.21,3.25,1.86,3.25v1h-.45v-1l-1,.43a.85.85,0,0,0,.72,1,.65.65,0,0,0,.24,0l-1,1.39c.46,1,.93,1.41,1.41,1.41a.39.39,0,0,1-.35.43.17.17,0,0,1-.1,0,2.9,2.9,0,0,0,.2.87,10.06,10.06,0,0,0-1.48,1.51,2.23,2.23,0,0,1-.13-.44,4.59,4.59,0,0,0-2.8,2.36l.43,1a.39.39,0,0,0-.43.32v.57l.43,1c.36,0,.53-.15.53-.44a.77.77,0,0,1,.88.66.74.74,0,0,1,0,.21l.21-.09a4.71,4.71,0,0,0,3.65,4.06,1.16,1.16,0,0,1-.61.24.85.85,0,0,0,.72,1,1,1,0,0,0,.24,0l-1,1.4.53.88a.46.46,0,0,0-.53.38.38.38,0,0,0,0,.15v2.27a3.46,3.46,0,0,0,1.41-.43h2.37v.43c-1.58,0-2.53.47-2.82,1.41v2.8h1.41l-.43-1V132c2.15.29,3.23.76,3.23,1.41a3.42,3.42,0,0,0-1.39.43.84.84,0,0,0,.7,1,1.13,1.13,0,0,0,.26,0h.43c0-1,.77-1.92,2.29-2.8l1,.43a7.06,7.06,0,0,1-1,2.82.85.85,0,0,0,.71,1,1,1,0,0,0,.25,0h.44c1.23-1.87,2-2.8,2.36-2.8s1.41-1.41,2.82-4.21c-1.24,0-1.84-.31-1.84-.88v-.53c1.51,0,2.27-.29,2.27-.88l1,.44h.45c0-2.51-.62-3.77-1.84-3.77v-.44a.83.83,0,0,1,.77-.88h.62v.88h.88a7.15,7.15,0,0,1,1-3.24c0-.53-.32-.86-1-1,0-1.24.48-1.85,1.41-1.85v-.44l-1.84-3.25v-.53c1.58-1.87,2.51-2.8,2.8-2.8v.45l-.43.88.87.52h.52a3.63,3.63,0,0,0-.52-1.93c0-.53.33-.82,1-.88-.3-1.87-.76-2.8-1.41-2.8q2.81-2.73,2.8-3.25v-1.38c-1.22,0-1.84-.48-1.84-1.41q2.82-3.17,2.82-3.78V96l-1-1.4a3.59,3.59,0,0,0,2.29-1l-1.31-1.85h.43l.88.44c0-.29.17-.44.53-.44a32,32,0,0,0-1.84-4.2c0-.29.43-.44,1.31-.44v-.45c0-.23-.76-1-2.29-2.36h.45l1.4,1h1v-.53c0-.47-.62-.94-1.84-1.4l.43-.89c0-.81-.62-1.31-1.84-1.4a3.46,3.46,0,0,0,.43-1.4h1v1h.87a5.45,5.45,0,0,0-1.4-3.33.94.94,0,0,1,.13-.46l2.77.88c1.64-.65,2.11-1.74,1.52-2.88-.19-.36-.39-.73-.59-1.13l.38-.09c0-.45-.3-.74-.88-.87h0a3.79,3.79,0,0,0-.95-.1c0-.75.61-1.23,1.85-1.4v-.88c-.94,0-1.41-.31-1.41-1l.43-2.37c-.29,0-.43-.14-.43-.44a.85.85,0,0,0,1-.71,1,1,0,0,0,0-.25V64.8l-2.8,1.41V64.82q2,0,4.21-3.77v-.88q0-.78-1-1l1-1.4v-1a3.07,3.07,0,0,0-1.41.53h-.53v-.53l1-1.4-.45-.88c.59,0,.88-.32.88-1a3,3,0,0,1,1.41.52h.52V52.19h-1v-.44a4.54,4.54,0,0,0,2.37-1.4l-1-1.41c0-.53.33-.84,1-1,0-.77-.63-1.2-1.92-1.32,0-.52.31-.84,1-1,0-.52-.32-.85-1-1a2.76,2.76,0,0,1-3.25,0,3.67,3.67,0,0,1,.43-1.84h1.94v-1.4q-5.18-1.66-5.17-5.09a3.29,3.29,0,0,1,1.39.44.86.86,0,0,0,1-.72,1,1,0,0,0,0-.25l.87.53L378.5,35q0-.78-1-1l.53-1v-.44h-1l-1,.44a3.8,3.8,0,0,0-.43-1.4c0-.29.31-.44,1-.44l-1.41-2.29h.43l1.41.88h.48v-.43c0-.65-.48-1-1.41-1v-.87h1.41v1.39a.45.45,0,0,0,.52-.38.33.33,0,0,0,0-.14l1.41,1h.43a.87.87,0,0,0,1-.73.65.65,0,0,0,0-.24V28h-1Zm-75,74.11v-.43a3.93,3.93,0,0,0,1.85-.43l.43.86Zm14.48-53.14a3.66,3.66,0,0,0-.45,1.4.92.92,0,0,1-1-.88v-.52Zm-.45,6V56h-1a3.71,3.71,0,0,0-.45-1.84V53.6H317a2.93,2.93,0,0,0,.92,1.84Zm-2.37-21c.65,0,1-.46,1-1.4H317v1l-.45,1h-1Zm0,23.77c0-.46.65-.93,1.93-1.4-.23,1.58-.69,2.37-1.4,2.37h-.53Zm2.37,5.18q0,.87-1,.87h-.45a3.38,3.38,0,0,0-.43-1.31Zm-2.8-3.25H317v.44a3.28,3.28,0,0,0-1.84,1h-.45a4.09,4.09,0,0,0,.41-1.41Zm-1.41,3.25a3.33,3.33,0,0,0,1.41-.44v1.84h-1.41Zm1,7.9h-.43v-.89h1.31a.77.77,0,0,1-.65.89.82.82,0,0,1-.27,0Zm1.41,9.81V82h-.53c-.53,0-.81-.29-.88-.88Zm-3.25-16.31.88.44-.44,1c-.93-.52-1.4-1-1.4-1.4Zm.44,6.5a.85.85,0,0,0,.71,1,1.13,1.13,0,0,0,.26,0l-.53.88a4.09,4.09,0,0,1-2.28-.45c0-.46.57-.93,1.81-1.39Zm-2.8,1.84h1c0,.64.29,1,.86,1v1a3.26,3.26,0,0,0-1.84-1Zm.45,2.37a2.83,2.83,0,0,0,.53,1.39v.45H310v-.88c-.05-.53.24-.85.83-1Zm1,6.48v1H310c0-.52.29-.84.88-1Zm-2.8-11.14h-.45c.47-.94.93-1.4,1.41-1.4v.44a.84.84,0,0,1-.69,1,1.13,1.13,0,0,1-.32,0Zm-1,10.26V80.7a3,3,0,0,0,1.41-.53l1,.53-.43.88a4.3,4.3,0,0,0-2-.45ZM305.83,92.8c-.53,0-.84-.32-1-1l1-1.41c.58,0,.88.33.88,1Zm.43,1.84a3.13,3.13,0,0,0,.45-1.39,4,4,0,0,0,1.39.43,5.08,5.08,0,0,0-.43,2.37h-.43c-.06-.94-.39-1.41-1-1.41Zm2.82,12.1a.93.93,0,0,1-1-.87h1.41v.87Zm.43,7H308.1v-1h.53c.53,0,.83.35.83,1Zm.53,7.46c-1.87.74-2.8,1.68-2.8,2.8-.53,0-.86-.32-1-1v-.45a21.14,21.14,0,0,0,2.82-3.23c.64,0,1,.29,1,.86Zm-1-3.78h-1c0-.52.33-.81,1-.88h1a.87.87,0,0,1-1,.88Zm1-21a3.91,3.91,0,0,0-1.41-.43v-1H310Zm0-1.84c-.53,0-.84-.32-1-1h1c.59,0,.88.32.88,1Zm1.41-2.37H310V91.4h1.41Zm.43,4.21a3.92,3.92,0,0,1,.43-1.84l-.43-1,.4-.3v.41h1.48v-.93l.92,1.32c-.8,0-1.73.79-2.89,2.3Zm1.88-3.68v-.58l.49-.38h.43a.84.84,0,0,1-.7,1,1.22,1.22,0,0,1-.27,0Zm1.8-5.17h-1.84c.48-.94.94-1.41,1.41-1.41h.43Zm1-1.84c-1.51-.82-2.27-1.44-2.27-1.85h.88c1.51.82,2.3,1.44,2.37,1.85Zm-.43-1.85V83h.43c1,.47,1.41,1,1.41,1.41Zm-1-15.44h-.45v-.43A3.23,3.23,0,0,1,317,64.82c.65,0,1,.3,1,.88q-2.37,0-2.37,1.41a.46.46,0,0,1,.53.38.33.33,0,0,1,0,.14l2.28-1.41h.52a4.12,4.12,0,0,1-3.81,2.28Zm3.24-16.31h-.45v-.88h1.41A.85.85,0,0,1,318.37,52.19Zm5.56-15.35.45-1a.86.86,0,0,1,1,.74.88.88,0,0,1,0,.23Zm5.18,11.66h-.52L326.3,48a10.72,10.72,0,0,0,.88-3.69h.53l.88.44-.45,2.37h1Zm1.4-35.44H330a3.42,3.42,0,0,0-1.39-.43c0-.53.31-.84,1-1a.84.84,0,0,0,.7,1h.26ZM333.23,55l.53-.88a.78.78,0,0,1,.88.66.81.81,0,0,1,0,.22ZM344,77.89a3.59,3.59,0,0,0-1.41-.52v-.88a3.46,3.46,0,0,0,1.41.43Zm6.5,17.2a.85.85,0,0,0-1,.72.65.65,0,0,0,0,.24h-.43v-.44c.46-.93.93-1.4,1.41-1.4Zm5.17,3.23v1.41h-1V98.32Zm-3.78,30.35v-1l.45-.88,1,.45C352.85,128.21,352.39,128.67,351.91,128.67Zm1.41-41.92.43-1a.86.86,0,0,1,1,.72,1,1,0,0,1,0,.24v.44A3.33,3.33,0,0,0,353.32,86.75Zm1.88,42.37h-.43a3.46,3.46,0,0,0,.43-1.41h1.32C356.1,128.65,355.62,129.12,355.2,129.12Zm.53-41.93a3.67,3.67,0,0,0,.43-1.84,3.47,3.47,0,0,0,1.84.87.85.85,0,0,1-.72,1,.65.65,0,0,1-.24,0ZM358,131h-.43v-1H359a.86.86,0,0,1-.73,1,1,1,0,0,1-.29,0Zm4.21-78.33-.43-1h1.84v.44a3.13,3.13,0,0,0-1.45.52Zm-1,3.25c.94.48,1.41.94,1.41,1.41v.44c-1-.48-1.41-.94-1.41-1.41Zm-.88.88h.45a3.42,3.42,0,0,0,.43,1.4v.53h-.88Zm.88,64.39h-.43V121l1.39-.87a.33.33,0,0,1,0,.14.85.85,0,0,1-.71,1,.94.94,0,0,1-.29,0Zm2.37-9.3h-1.45v-1h1.41Zm.43-11.24c0,.65-.28,1-.86,1v-.53a.82.82,0,0,1,.77-.88h.09Zm1.85,25.18h-1.32V125H365c.54,0,.83.25.83.89ZM365,56.4h-1a3.42,3.42,0,0,0-.86-1.84h1.39A3.21,3.21,0,0,0,365,56Zm7.4-25.62h2.82v.45l-2.37.44h-.45Zm-3.23,6.5h.87V35.44h.52c.65.12,1.32.91,1.84,2.37a2.45,2.45,0,0,1-1.84,1.84l-1.39-1.84Zm-1.94,0c.94.53,1.41,1,1.41,1.4h-.44a.93.93,0,0,1-1-.87ZM365,40.08a.92.92,0,0,1,.87-1v1.4H365Zm-1.41,3.25v-.44a18.75,18.75,0,0,0,4.65-3.24h.44q0,1.58-4.65,3.68Zm4.21,16.84h-1.41a3,3,0,0,0-.52-1.4h1c.65,0,1,.3,1,.88Zm1.41-4.73h-.53c-1.17,0-2.1-.91-2.81-2.73l.52-1a2.16,2.16,0,0,1,2.29,1.85h-.44l-1-.44a.38.38,0,0,1-.32.44h-.11c0,.69.79,1.17,2.37,1.4Zm-1-6-1.4,1h-.45c0-.77-.79-1.7-2.36-2.81,0-.52.32-.81,1-.88h.43a4.06,4.06,0,0,0,.44,1.84,3,3,0,0,0,1.4-.52V45.7l2.37-.45v-.52l-.43-.87-2.37.43v-1.4a3.48,3.48,0,0,1,1.4.44l1-.44a3.11,3.11,0,0,0-.53-1.4V41h1c.65,0,1,.31,1,.89L372,41h.43a3.85,3.85,0,0,1-.43,1.41l.43.88a4.07,4.07,0,0,0-.43,1.4h-.53v-1.4c-.93.53-1.4,1-1.4,1.4H371l-2.37,2.81V48h.53A2.33,2.33,0,0,0,371,45.7h1v.44a4.63,4.63,0,0,1-2.37,2.36l.43.89,1-.45c.93.47,1.39,1,1.39,1.41a3.81,3.81,0,0,1-1.84-.44l-1,.44c-.88,0-1.35-.36-1.35-1Zm2.36,3.77v-.45a3.59,3.59,0,0,0,1.41.45l-.53,1C371,54.12,370.66,53.81,370.59,53.16Zm.88,40.52c0,.64-.28,1-.88,1h-.52v-1ZM370.59,97a3,3,0,0,0-.52-1.4h.52c.94.46,1.41.94,1.41,1.4Zm2.29-8a3.91,3.91,0,0,0-1.41.43H371c.75-1.22,1.31-1.84,1.84-1.84Zm0-2.29v.44H371v-.44Zm-1.41-29.38v-1a3.33,3.33,0,0,0,1.41-.44c0,.29.17.44.53.44a.87.87,0,0,1-.75,1,.88.88,0,0,1-.23,0l.45.87h-.45A.93.93,0,0,1,371.47,57.37Zm.53,2.28h1.41v1h-.53C372.3,60.61,372.05,60.29,372,59.65ZM374.28,74l-.23.11h-.21q-.78,0-1-1v-.45a3.83,3.83,0,0,0,1.4.45Zm.44-3.14h.53v.45a.86.86,0,0,1-.73,1,1,1,0,0,1-.24,0h-.44v-.44a.93.93,0,0,1,.88-1Zm1-14-1.84-.44V56h1.84Zm.44-5.09,1.41,1a7.32,7.32,0,0,1-6.06,2.73H371c1.63-2,2.85-3.07,3.68-3.25h.53c-.53.93-1,1.41-1.41,1.41l.43,1c.71,0,1.32-.94,1.9-2.81Zm-2.71-10.26a.93.93,0,0,1,.87-1,3.34,3.34,0,0,0,1.84,1v.44h-2.71Zm1.31,2.37v.43c0,.65-.3,1-.88,1v-.52c0-.53.29-.82.88-.87Zm-1.31,6.49a3.57,3.57,0,0,0,1.31-.44h.53v.44c-.18.64-1,1.31-2.37,1.84a.39.39,0,0,0-.45-.44l.45-1.84c.34,0,.53.15.53.44ZM376.64,34v1h-2.36l-2.28.45v-1a3.79,3.79,0,0,0,1.84-.44l.88.44Z"/><path class="cls-1" d="M294.69,61.58l-.44,1L292,62v-.88h.86v-.86H291l-.87.43a.39.39,0,0,0-.34-.44h-.1a.91.91,0,0,0-1,.86L291,62v.53a4.8,4.8,0,0,0-2.27.44L287,62c-.53,0-.86.32-1,1l-.86-.44h-1l-2.29.44a.85.85,0,0,0-.7-1h-.26V60.7l-.43-.88-1.32.88h-1c0-.93-.43-1.41-1.32-1.41a3,3,0,0,0-1.39.53l-2.29-.53-1.75,1.41H271a3.47,3.47,0,0,0-.44-1.41l-2.29,1.41a.38.38,0,0,0-.32-.43.2.2,0,0,0-.11,0h-2.72l-2.28.43a.38.38,0,0,0-.32-.43.2.2,0,0,0-.11,0l-3.16,1.31V60.7h-1.41l-2.27-.43c-1.53,0-2.44.43-2.73,1.31a3.59,3.59,0,0,1-1.84-.45,3.42,3.42,0,0,1-1.76.45h-1.92c-.94-.47-1.4-.91-1.4-1.31.46-.94.94-1.41,1.4-1.41a7.53,7.53,0,0,0-.87-2.73c.29,0,.58-.43.87-1.31l-.87-.53,1.31-2.18a3.33,3.33,0,0,0-.44-1.41c.3,0,.44-.14.44-.43v-.45l-.44-1a.78.78,0,0,0,.88-.65.88.88,0,0,0,0-.23V46.57l-.44-.87q.87,0,.87-9.56a44.32,44.32,0,0,0,9.57-2.73l1.84.45,4.59-2.29a3.56,3.56,0,0,1,.43,1.41l6.41-2.28,2.72.44q0-1.32.87-1.32a37.91,37.91,0,0,1,5,.44,3.61,3.61,0,0,1,2.78-1.4V27.55c-1.82,0-2.73-.33-2.73-1v-.43l2.29.43v-.86a6.22,6.22,0,0,0,4.12,1.39,16.39,16.39,0,0,1,2.72-2.8,2.87,2.87,0,0,0-.52-1.32,3,3,0,0,0,.52-1.41l.88.53H291l1-.53v.53l-1,1.32v.44h1.41V23l.88.44V22.1h.44v.45A4.93,4.93,0,0,1,292,25.71v.86h.43c.58,0,.88-.43.88-1.31h1.4c0,1.24.29,1.84.88,1.84H296v-.53l-.43-.86,2.72-1.41c0-.48-.3-.76-.88-.88l-1,.44V23h3.24c-.75-1.22-1.32-1.84-1.85-1.84l-.86.43c0-.28-.19-.43-.53-.43,0-.53.31-.81,1-.88l-.43-1a3.63,3.63,0,0,1-2.29,1l.44.88v.43h-.88v-.86l.44-.88h-.44a.93.93,0,0,1,.88-1h0l-.44-.88a3.38,3.38,0,0,0,1.31-.43l1.84.87a.77.77,0,0,0,.88-.66.74.74,0,0,0,0-.21l1.85.87c.58,0,.88-.44.88-1.32H302q0,2.73,1.32,2.73h.43a3.07,3.07,0,0,1,.53-1.41,3.28,3.28,0,0,1,1.32.44c1.52-.35,2.27-.78,2.27-1.31V17.1h-1.45v-.52h1l.89.52a3.54,3.54,0,0,0-.45-1.41v-.86l2.68,2.27h1.41c.58,0,.87-.31.87-1V14.83h-.87v.43c-2.17,0-3.25-.46-3.25-1.41a.39.39,0,0,0-.43.35.17.17,0,0,0,0,.1,7.3,7.3,0,0,1-2.73-.88l-.88.43a3.47,3.47,0,0,1-1.84-.87h-.43l.43.87h-.43L300,13.42q0-.69-1.41-2.28h-.43c-.59,0-.88.46-.88,1.4h-1c0-.94-.45-1.4-1.32-1.4l-.88.44V10.7c-1.53,0-2.28.3-2.28.88a3.33,3.33,0,0,1-1.4-.44c-.53,0-.82.32-.88,1Q285,11.23,285,10.26a7.11,7.11,0,0,1-3.6,1.32.39.39,0,0,1,.32-.44h.11c0-.52-.31-.81-1-.88a3.48,3.48,0,0,0-1.75.44l-1-.44a5.7,5.7,0,0,1-2.71,1.32l-.88-.44a68.78,68.78,0,0,0-9.57,1.4c0-.29-1.19-.61-3.59-1a3.33,3.33,0,0,0,.44,1.4q0,.87-3.24.87l-.79-.43a3.45,3.45,0,0,0-.88,1.84h-1.39l.43-1v-.45a3.48,3.48,0,0,1-1.32-.43l-1.84.88-.43-.88c-2.11.24-3.17.7-3.17,1.41-.94-.48-1.4-.94-1.4-1.41v-.88h1.84L252,12.1v-1h-1.84l-6.41,1.4,1,1.76v1A16.34,16.34,0,0,0,242,12.54h-.43l-1.41.88h-.88l.45-.88v-1h-.45l-1,.52.43.88v.87c-.46,1-.9,1.41-1.31,1.41l-1.4-1v1.39h-2.72v.89l.53,1h-2.28c-.36,0-1.12,1.05-2.29,3.16A4.69,4.69,0,0,1,229.7,23l2.71-.43h.45c-1.53,1-2.29,1.75-2.29,2.27h-.44v-1h-.88c0,.94-1.08,1.85-3.24,2.71v-.43c-.59,0-.88.47-.88,1.41h-.43c0-1.53-.3-2.29-.88-2.29,0,.88-.77,1.79-2.28,2.72-.23,0-1.14-.14-2.72-.43h-.53a3,3,0,0,0,.53,1.31c-.94.7-1.41,1.17-1.41,1.4v1.31l.45,1a3.69,3.69,0,0,0,1.84-.45l.87.45A3.34,3.34,0,0,0,222,32.1c.88.47,1.31.91,1.31,1.31a23.8,23.8,0,0,0,4.12-.43c1.58.29,2.49.43,2.72.43l2.28-.43h.45L231,34.82c0,.58.32.88,1,.88l-.43,2.71a5.25,5.25,0,0,0,.87,2.29,3.43,3.43,0,0,0-1.84.87A3.33,3.33,0,0,0,231,43v.43l-.88-.43c-.52,0-.81.29-.88.88H232v.43c-1.22,0-1.84.33-1.84,1V47.1l.44.88c-.29,0-.58.43-.87,1.31l.43,1c-.41,0-.69.89-.88,2.71l.45.88c-.42,0-.71.91-.88,2.72l.43,1c-.46.88-.93,1.32-1.39,1.32a3.56,3.56,0,0,0,.43,1.41L226,68l.53.89A3.22,3.22,0,0,0,226,70.7l-3.68-.88c0,.3-.14.44-.43.44v-.44a15.31,15.31,0,0,0-4.12.88l.43.88v1h-.43c-.36,0-1.41-.91-3.17-2.72v.44c0,.46-.75,1.52-2.28,3.16a7.27,7.27,0,0,1,.88,3.16c0,1.1,3.66,2.63,11,4.55V82l-.43,2.29c.29,0,.43.17.43.53a.37.37,0,0,0-.43.32.2.2,0,0,0,0,.11v3.16a39.56,39.56,0,0,1-1.84,10l.88.43a7.76,7.76,0,0,0-.88,2.72l.43,1c-.29,0-.76,2.11-1.39,6.32l.52,2.72c-.47,0-.94.62-1.4,1.84.69,3,1.31,4.57,1.84,4.57l-.44.88v.43l.44,1a.93.93,0,0,0-1,.88h0V123l1-.44h.43L221,124.73c0,.35.31.52,1,.52,0,.59-.33.88-1,.88a3,3,0,0,0,.52,1.41l-.52.87,1,1.84a3.51,3.51,0,0,0-.44,1.76,5.53,5.53,0,0,0,.87,2.71c-.29,0-.43.19-.43.53a.76.76,0,0,0,.65.88h.66l.53-2.72-.53-.87c0-.53.32-.85,1-1a27.42,27.42,0,0,0-1-5h1v-1.84c0-.46-.31-.75-1-.87.46-.88.94-1.32,1.41-1.32a3.71,3.71,0,0,0-.45-1.84l.45-1a22.82,22.82,0,0,1-.45-4l.45-3.16c-.3,0-.45-.17-.45-.52s.59-.85,1.76-1.32c.41,0,.73.91,1,2.72h-1l.53.88,1.32-.88h.43l-.88,1.84c0,.89.29,1.32.88,1.32l1-.43c0,.29.15.43.45.43l-.45,1a8.71,8.71,0,0,0,3.16.87,3.81,3.81,0,0,0-.44,1.84l-3.68,5.88L229.7,128l.87-.44,1.4.87c1.53-1.22,2.28-2.13,2.28-2.71a.78.78,0,0,1,.88.66.74.74,0,0,1,0,.21h-1V127l2.72,1.84,2.28-.45h.45a.4.4,0,0,1-.34.45h-.11l.45.87.87-.44h1v1.84h1.31l2.28-.43c0,.29.47.43,1.41.43v-.89h.43l1.75,1.31a3.38,3.38,0,0,0-.43-1.31h1.41l1.84-1a3.56,3.56,0,0,0,.43,1.41l.88-.45a3.23,3.23,0,0,0,.44,1.31c.64,0,1-.29,1-.86a6.56,6.56,0,0,1,3.16,1.31h.51a10.37,10.37,0,0,1,4.12-1.31c0,.29.14.43.45.43a.78.78,0,0,0,.87-.67,1.48,1.48,0,0,0,0-.21,3.62,3.62,0,0,1,1.85.45c.59,0,.88-.48.88-1.41.35,0,.52.14.52.43a5.44,5.44,0,0,0,2.73-.87v.44l.86-.44-.43-.88a6.21,6.21,0,0,0,3.59-1.4,3.19,3.19,0,0,1,1.41.44l3.16-1.76.88.45a3.21,3.21,0,0,0-.45-1.41c0-.47.33-.76,1-.88a3.33,3.33,0,0,0-.52-1.84,7.58,7.58,0,0,0,1-2.71c-1.22,0-1.84-.31-1.84-.89-.58,0-.88.44-.88,1.32q-4.12-1.75-4.12-2.28c1.52,0,2.27-.9,2.27-2.72h-.86v-.88l6.74-1.84q-5.16-4.57-5.88-4.57l-1.84.53-.87-.53v.53l-1.4-1h-.44l-1.31,1h-.53c0-1.51-.45-2.28-1.32-2.28a3.28,3.28,0,0,0-.44,1.32l-3.24-.44h-.45l-2.27.44a.39.39,0,0,0-.32-.44h-.12a7.78,7.78,0,0,0-3.6.87l-.43-.87a3.47,3.47,0,0,0-1.41.44l-1.84-.44-1.75.87v-.43c-4.27.4-6.41,1-6.41,1.84a4.12,4.12,0,0,1-1.41-.43,24.71,24.71,0,0,1-4,.43h-1.41v-1.84a16.27,16.27,0,0,0-5.43,2.74v-.45l.43-.87-.88-.45H232v.88c-1.52,1.12-2.27,2-2.27,2.73h-1.84c0-.53.31-.82,1-.88l-.53-1c-.47,0-.76.31-.88,1a3.81,3.81,0,0,0-1.84-.44V108l-.44-2.29.88-.43a.39.39,0,0,0-.34-.44h-.1l1.84-5.52h1.84v-.45L227,96.57c.46-.88.9-1.31,1.31-1.31h.53a3,3,0,0,1-.53,1.31c0,.65.91,1,2.72,1v.89h-.88a.78.78,0,0,0,.66.88.81.81,0,0,0,.22,0h.53v-.88h.87a5.1,5.1,0,0,1-.87,2.27l-1.41-.87h-.43l-1.84,1.32.43,2.27-.43.89a5,5,0,0,0,2.27-.89l-.88-1.4H231l-.44,2.29H232L234.7,102h.43c0,1.23.29,1.84.88,1.84v.45h-.52l-.87-.45-.45,1v.42h1.76a.76.76,0,0,1-.65.88.45.45,0,0,1-.23,0l.44.87c.64,0,1-.29,1-.87l.87.44h.45a11,11,0,0,0,1.39-3.59h-1c.47-.94.93-1.41,1.41-1.41l-.45-.88-1,.45V99.81c1.22,0,1.84-.47,1.84-1.41l-.43-.88c.87-.46,1.31-.93,1.31-1.39a.87.87,0,0,0-.88-.88l1.41-2.73c-.41,0-.74-.6-1-1.84.64,0,1-.76,1-2.28a.38.38,0,0,1,.43.32.24.24,0,0,1,0,.12c3.92-.7,5.88-1.76,5.88-3.16h.87l-.43.88.43,1,1-.52a3.4,3.4,0,0,0-.45-1.32v-.43l1.76.88a3.49,3.49,0,0,0,1.41-.45l-1.84-1.84a5.09,5.09,0,0,1,2.71,1l2.29-1.4v.43a3.42,3.42,0,0,0,1.39-.43l1.76.43L260.5,83a3.66,3.66,0,0,0,1.84.45,5.39,5.39,0,0,0,2.71-.89l-.44-1v-.44l2.28.44c.88,0,1.31-.76,1.31-2.29l2.29.53h1.4c0-1.22.3-1.84.88-1.84h1.84c0,.3-.14.45-.43.45a.75.75,0,0,0,.64.86.45.45,0,0,0,.23,0L277.77,77l1.41,1h.43c.59,0,.88-.32.88-1v-.88h-.88v-.87c.88,0,1.32-.33,1.32-1l1,.52.88-.52-.44-.87-.88.43h-1V73a7.68,7.68,0,0,0,5.43-1.84h.53V72c-1.51.24-2.27.7-2.27,1.41v.43a3.39,3.39,0,0,1,1.31.44A4.53,4.53,0,0,1,289.61,72v-.43l-.44-.89c.58,0,1.32-.61,2.2-1.84a.39.39,0,0,0-.35-.43h-.1a3.69,3.69,0,0,1,.45-1.84v-.45l-.88.45v-.88h3.16l1-.44-.44-1v-.87a3.42,3.42,0,0,1,1.32.43.77.77,0,0,0,.88-.65.89.89,0,0,0,0-.23C296.4,62.51,295.8,62,294.69,61.58Zm8.15-44a.93.93,0,0,1,.88-1V18h-.88Zm-8.59,5.87H296v.44c0,.65-.29,1-.87,1h-.88Zm-1.46-5h.88v1.41c-.47,0-.76-.33-.88-1Zm0,1.41a.39.39,0,0,0,.45.43.78.78,0,0,1-.66.88h-.22a.92.92,0,0,1-1-.88h0A3.42,3.42,0,0,0,292.79,19.83Zm-5.43.43a3.49,3.49,0,0,0,2.27-1h.45v1a3.21,3.21,0,0,0-1.41.45h-1.31Zm-9.13-7.72c.47-.94.95-1.4,1.41-1.4h.43v1.4a3.54,3.54,0,0,0-1.39.44h-.45Zm-3.16,7.29h.45a.79.79,0,0,1-.69.88h-.63a.83.83,0,0,1,.78-.88Zm-18.15-3.69h1.31v1h-1.31Zm18.6,108.15h1v.44a.86.86,0,0,1-.72,1h-.24Zm-33.6-5.43h2.28v.43h-2.28Zm-6-2.29h.53c.86.47,1.31.93,1.31,1.41h-.88c-.53,0-.84-.33-1-1Zm.53,2.29v.43c0,.46-.62.94-1.85,1.41v-.45c.47-.93.91-1.39,1.32-1.39Zm-1.85-9.56h.85l-.87,1.39-.88-.43a1,1,0,0,1,.9-1Zm-1.4,14.56q1,0,1,.87v.52h-1a3.43,3.43,0,0,0-.44-1.39Zm11.84-110c0-.46.29-.75.88-.87h1v.87a3.8,3.8,0,0,0-1.84.45Zm-2.28,1.41h.44a.78.78,0,0,1-.66.88h-.66c0-.52.29-.81.88-.88Zm-.45-1.84-.43.88c-.53,0-.84-.29-1-.88ZM237.8,51.57v-.45a3.46,3.46,0,0,0,1.4-.43v.88Zm.87,5.52-.43.87c-.48,0-.77-.29-.89-.87Zm-1.75-22.81h.88v.53a.78.78,0,0,1-.68.88.67.67,0,0,1-.2,0Zm-1.43,1.86h1.4l.89.43L236.89,38c-.93-.46-1.4-.93-1.4-1.41Zm0,3.16c0-.47.33-.77,1-.89.12,1.24.55,1.85,1.32,1.85l-.45,1.84h-.87a.85.85,0,0,0-.73-1,.65.65,0,0,0-.24,0Zm1.4,3.24c0,.58-.31.87-1,.87h-.44q-.8,0-.87-.87Zm-2.72,41.31c-.46.94-.93,1.41-1.39,1.41,0,.58.31.88,1,.88h.88v-.88h1.31v.43a11,11,0,0,1-3.6,1.32h-.79V83H232A3.66,3.66,0,0,0,234.17,83.85ZM231.9,80.7h1c.64,0,1,.28,1,.88h-1a.86.86,0,0,1-.94-.88Zm3.15.88.88-1.32h.53l-.53.87.53.88h-.53ZM236.89,83a3,3,0,0,0,1.75.88v.45c0,.46-.57.93-1.75,1.39a.37.37,0,0,0-.32-.43.2.2,0,0,0-.11,0Zm1.32-1.84a.78.78,0,0,1-.65.88h-.23v-.45c0-.47.3-.76.88-.88Zm-.88-15.43h-.87l.43-2.28h.89ZM236,45.25l-.45.89c-.52,0-.81-.29-.87-.89ZM232.36,58a.39.39,0,0,1,.44-.44L235.08,48l-.44-.88v-.53l.87.53a22.78,22.78,0,0,1-.43,5.88c.29,0,.58.44.88,1.31-.47,0-.91,1.09-1.32,3.25H236V58h-.47v1.31h-1.75l1.31,1.84h-1.31v.45l.88,1.4h-1.41v.44l.53.87h-.53l-.88-.43a40,40,0,0,1,.88-5.44Zm-.82,7.72-.53-.88v-.53c1.23.76,1.85,1.38,1.85,1.84v.45h-2.29C230.51,66.11,230.84,65.78,231.54,65.7Zm-4.13,19.13a3.77,3.77,0,0,0,1.41-.53,3,3,0,0,0-.53-1.32c0-.93.32-1.39,1-1.39h.88a.38.38,0,0,1-.32.43.21.21,0,0,1-.11,0,3.46,3.46,0,0,0,.43,1.41,3.7,3.7,0,0,0-.43,1.84h-2.29Zm.45,1.31c.63,0,1,.29,1,.87v.53c0,.59-.33.88-1,.88l-.45-2.28ZM227,90.26v-.43a.93.93,0,0,1,.88-1h.43v1.41Zm1.31,4.56a3.46,3.46,0,0,0-.43-1.4l2.71-.44c-.17.58-.92,1.2-2.33,1.84ZM231,91.14,229.7,92a3.15,3.15,0,0,0-.88-1.75v-.43a3.27,3.27,0,0,0,1.31-.53,11,11,0,0,1,2.28,2.28,3.55,3.55,0,0,1-1.45-.44Zm1.4,4.55V94.3h1.41c-.58.93-1.06,1.39-1.46,1.39Zm3.6,5.88-1.84-.43V98.85h.88c.58,0,.88.33.88,1Zm.53-7.27h-1.41v-.45l.44-2.71-.44-.88H237l-1,3.16Zm3.16-8.16h-.45a5.57,5.57,0,0,1-3.68,3.16h-.44v-.88H236q2.37-2.73,3.24-2.73h.45Zm.86-26.85a5.77,5.77,0,0,0-3.15,1.84h-.87a3.72,3.72,0,0,1,4-2.71Zm-1.31-16.75c-.53,0-.84-.32-1-1h1.41c.58,0,.86.33.86,1Zm1.31-5.44v.45h1v1.31c-.65,0-1,.61-1,1.84h-.86c0-.93-.33-1.4-1-1.4v-.89a3.49,3.49,0,0,1,1.41.45h.43V37.55h-.86l.43-1c0-.46-.29-.75-.88-.87a3.94,3.94,0,0,1,2.29-3.6H242a3.23,3.23,0,0,0,.44,1.31h-.87v.45l.43,1c-.29,0-.75.77-1.46,2.28Zm3.16-.53a3.27,3.27,0,0,0-1.31.53l-.44-1V35.7h1.75Zm1.84-1.75h-.86a3.54,3.54,0,0,0-.45-1.41l.88-.43a3.48,3.48,0,0,0,.43,1.32Zm14.13,47.72h-2.27c-.95,0-1.41-.32-1.41-1v-.45a5.63,5.63,0,0,0,3.68.88Zm3.16-.53c-.53,0-.82-.29-.88-.88V80.7h1.31a3.41,3.41,0,0,0,.45,1.31Zm13.68-20.88h-1.41V60.7a4.06,4.06,0,0,0,1.41-.43Zm10.88,2.73v-.44a3.49,3.49,0,0,1,1.32.44l1-.44v.87a3.11,3.11,0,0,0-1.4.53c-.58,0-.88-.36-.93-1Zm2.67,4.55a3.34,3.34,0,0,0-1.41-.45V67h.53c.58,0,.88.32.88,1Z"/><path class="cls-1" d="M107.1,87.27h.7l-.34-1.65a.63.63,0,0,0,.7-.53.54.54,0,0,0,0-.18h-1.41v.35a.32.32,0,0,0,.27.36h.08l-.35.69A2.23,2.23,0,0,1,107.1,87.27Z"/></g></g></g></g></svg>